<svg xmlns="http://www.w3.org/2000/svg" preserveAspectRatio="none">

    <symbol id="footerSocialArrow" viewBox="0 0 129 16" fill-rule="evenodd" clip-rule="evenodd">
        <path d="M127.4,8.3c0,0-0.1,0.1-0.2,0.1l-7.9,6.9c-0.2,0.2-0.5,0.2-0.7,0c-0.2-0.2-0.2-0.5,0-0.7l7.1-6.2H2
	C1.7,8.5,1.5,8.2,1.5,8c0-0.3,0.2-0.5,0.5-0.5h123.7l-7.1-6.2c-0.2-0.2-0.2-0.5,0-0.7c0.2-0.2,0.5-0.2,0.7,0l7.9,6.9
	c0.1,0,0.1,0.1,0.2,0.1c0,0,0,0.1,0,0.1c0,0,0,0.1,0,0.1c0,0,0,0,0,0C127.5,8,127.5,8.2,127.4,8.3z" />
    </symbol>

    <symbol id="facebookIcon" viewBox="0 0 14.2 24 " fill-rule="evenodd" clip-rule="evenodd">
        <path d="M4.000,23.000 L4.000,11.997 L0.000,11.997 L0.000,8.996 L4.000,8.996 L3.974,5.715 C3.974,2.130 6.797,0.000 10.122,0.000 C11.716,0.000 12.553,0.165 12.952,0.217 L12.952,3.846 L10.132,3.845 C8.323,3.845 7.985,4.708 7.985,5.922 L8.001,8.996 L13.000,8.996 L12.000,11.997 L8.001,11.997 L8.001,23.000 L4.000,23.000 Z" />
    </symbol>

    <symbol id="twitterIcon" viewBox="0 0 27 22" fill-rule="evenodd" clip-rule="evenodd">
        <path class="st0" d="M26.3,3.6L24,5.9c0,0,0-0.2,0,0.4c0,0.4-0.1,0.8-0.2,1.2c-0.1,3.1-1.1,7.3-5.3,10.5c-8.4,6.4-17.3,0.8-17.3,0.8
	c7.1,0,7.1-2.3,7.1-2.3c-1.6,0-4.7-3-4.7-3c0.8,0.8,2.4,0,2.4,0c-3.9-2.3-3.9-4.5-3.9-4.5c0.8,0.8,2.4,0,2.4,0
	c-3.9-3-1.6-6.8-1.6-6.8c0.8,3.8,11,5.3,11,5.3l0.1-0.1c-0.1-0.3-0.1-1.1-0.1-1.4c0-2.7,2.3-4.5,5.1-4.5c1.6,0,2.9,0.7,3.9,1.7
	l0.5-0.2l2.4-1.5l-1.6,3L26.3,3.6z" />
    </symbol>

    <symbol id="landingLogo" viewBox="0 0 1010 164">
        <path class="st0" d="M259.1,134.2c0-2,0.2-6.2,0.3-6.8c0-0.9,0-2.3-0.2-12.5v-5.7c0-0.9,0.2-3.4,0.2-5.7v-2.3v-2.6v-2.2v-1.2
		c0-2-0.2-3.1-0.2-3.9v-0.6c0.2-1.4,0.3-6.3,0.3-8.8v-2.3c0.1-0.3,0.1-0.7,0.2-1.4h-28.4v0.2c0,0.9-0.2,2.9-0.3,3.4
		c0,0.3,0.2,8,0.3,9.7v1.1v0.8c0,0.6,0,1.4,0.2,3.2v2.8c0,0.3-0.2,0.8-0.2,1.1c0,0.3,0.2,0.6,0.2,0.8v6.5c0,0.9,0.2,2.8,0.2,4.8
		c0,1.9-0.2,3.6-0.2,4.3v1.5c0,3.9,0.6,11.6,0.6,13.9v0.9v0.5v0.5c0,0.9-0.2,2.6-0.2,3.7c0,0.6,0,0.9,0.2,1.1c0,0.2,0,0.6-0.2,1.2
		c-0.2,0.3-0.2,0.5-0.2,0.6c0,0.5,0.2,0.8,0.3,0.9v0.9c-0.2,0.5-0.2,1.2-0.2,2c0,0.8,0.2,2.6,0.2,3.9c0,2-0.2,4.3-0.2,5.7
		c0,0.8,0,1.2,0.2,1.4c0.3,0.5,2.2,1.2,2.9,1.5c1.5,0,2,0.6,4,0.6c4.2,0,2.9-0.3,7.1-0.3c4.2,0,9.8-0.3,11.6-0.6
		c0.9-0.2,1.5-0.6,1.9-1.4c0-4-0.6-18.2-0.6-20.2V134.2z M500.5,40.6c2,1,3.2-2.3,3.3-4c0.2-2.7-2.9-3.5-4.7-2.1
		c-2.3,1.7-4.7,1.5-3.3,4C496.6,40,498.2,39.5,500.5,40.6z M256.2,45.1c-1.1,0-2.2,0.2-3.4,0.2c-0.9,0-1.9-0.2-2.8-0.3h-1.2
		c-1.4,0-3.1,0.2-3.6,0.3H245c-0.5,0-1.4-0.3-2-0.3c-1.2,0-1.4,0.5-2.2,0.5c-0.2,0-0.3-0.2-0.6-0.2c-0.3,0-0.5-0.2-0.6-0.2
		c-0.6,0-1.2,0.3-1.9,0.3c-0.6,0.3-1.7,0.3-2.2,0.8c-1.6,0-3.3,2.6-3.4,4.2c-0.3,2.3-0.5,8.2-0.5,12.5c0,0.9-0.2,1.9-0.2,2
		c-0.2,0.2-0.2,1.1-0.2,2v3.2h28.2c0-1.6,0.1-2.5,0.1-4.3v-2.9c0-0.6,0.2-4,0.2-5.1v-4c-0.2-1.9,0-1.5,0-2.2v-0.8
		c0-2-0.2-3.4-0.6-4.3C258.7,45.5,257.7,45.1,256.2,45.1z M378.6,76.3c0.2-0.9,0.2-2.5,0.2-3.2v-0.3c0.2-1.9,0.2-2.2,0.5-2.3
		c0.2,0,0.9-0.2,1.6-0.2c0.9,0,8.2-0.5,10.5-0.5c0.8,0,2-0.5,2.9-0.5c0.3,0,0.5,0,0.8,0.2h1.2h0.2c0.2,0,0.6,0.2,0.9,0.2h0.3
		c4.3-0.5,5.1-2.3,5.1-4.3c0-0.8-0.2-1.7-0.2-2.5v-0.2v-7.9v-0.2c0-2.9-0.2-5.7-0.6-7.6c-0.5-1.1-0.8-1.4-2-1.9
		c-0.9-0.3-1.1-0.3-5.7-0.6c-2.3-0.2-5.1-0.2-6.4-0.2h-0.5h-5.6c-0.3,0-2,0.2-3.7,0.2c-1.7,0-3.4-0.2-3.6-0.2
		c-0.2,0.2-0.6,0.2-0.9,0.2c-0.2,0-0.5-0.2-0.6-0.2h-0.2c-0.9,0-2.5,0.3-3.3,0.3h-0.5h-2.3h-0.2c-0.9,0-2.6,0-3.9-0.2h-3.4
		c-0.3,0-0.8,0-1.2-0.2c-0.3,0-0.8,0.2-1.2,0.2h-2.6c-1.5,0-2.9,0.2-3.7,0.9c-0.8,0.8-0.8,2.5-0.9,3.4c-0.5,2.2-0.5,2.5-0.5,5.7
		c0.2,0.5,0.2,0.9,0.2,1.4v1.5c0,1.5,0,9,0.2,14.7v0.5c0,2.6-0.2,4.8-0.2,5.7c-0.2,0.8-0.2,2-0.2,4.5v1.9l0.5,4.8c0,4.9,0,6.3,0.2,7
		c0,0.2-0.3,0.9-0.3,1.4c0.2,0.6,0.2,1.1,0.2,1.1v0.2c0,0.3-0.3,1.2-0.3,2.3c0,3.4,0.2,5.9,0.2,7.6v0.5c0,3.2-0.2,4-0.2,4.2
		c0.2,0.2,0.2,1.4,0.2,2.9v3.2c0.2,0.2,0.2,0.5,0.2,0.6c0,0.2,0,0.5-0.2,0.6v0.6v1.2c-0.2,0.8-0.3,1.7-0.3,2.9c0,1.7,0.2,3.7,0.2,6
		l-0.2,5.7c0,4.9,0.3,10.7,0.9,14.4c0.2,1.1,0.6,2.2,1.2,2.6c1.4,1.4,1.9,2.3,5,2.5c3.3,0.5,4.8,0.5,6.7,0.5h1.4h3.9
		c5.9,0,10.2,0.2,15.7,0.2h4.3c0.8,0,3.9-0.2,4.3-0.3c0.2-0.2,0.5-0.2,0.9-0.2c0.9,0,2,0.2,2.9,0.2c0.6,0,1.2,0,1.7-0.2
		c0.6,0,2.3-1.2,2.9-2c0.8-0.8,1.1-2,1.2-3.7c0-1.4,0.3-5.7,0.3-8.8c0-1.2-0.2-2.2-0.3-2.6c-0.2-0.3-0.3-1.4-0.3-2.5
		c-0.2-2.5-0.3-2.3-0.9-3.7c-1.9-0.9-2.5-1.4-4.8-1.4h-0.2c-1.5-0.2-3.3-0.2-4.6-0.2h-0.2c-1.4,0-2.5,0-2.8,0.2
		c-0.2,0.2-0.6,0.2-1.1,0.2h-1.9c-1.2,0-1.9,0-2.8-0.2c-0.3,0-1.5,0.2-2,0.2h-2.6c-0.2-0.8-0.2-1.1-0.2-1.4v-2.2v-1.7
		c-0.2-0.5-0.2-0.8-0.2-1.2c0-1.1,0.3-2.2,0.3-4v-1.7c0-2.2-0.2-3.7-0.2-4.6V114v-0.8c0.2-0.9,6.8-1.2,9.1-1.2
		c0.9-0.2,2-0.2,2.2-0.3h1.1h0.6h0.2h0.3c0.8,0,4,0,5,0.2c0.5,0,0.8,0.2,1.1,0.2c0.3,0,0.6-0.2,0.6-0.2c0.6,0,1.6-0.9,1.7-1.9
		c0.3-0.8,0.5-4.2,0.5-7.6v-0.3c0-2.5-0.2-4.8-0.3-6.2c0-0.9-0.2-2.3-0.2-2.9c-0.2-0.5-0.2-1.2-0.3-1.5c-0.3-0.5-1.2-1.1-1.9-1.1
		c-0.2,0-0.6-0.2-0.9-0.3c-0.6-0.2-1.2-0.2-2.2-0.3H393c0,0-0.8,0-1.7,0.2c-1.5,0.3-2.6,0.3-4,0.3h-0.2h-2.8c-1.4,0-3.1-0.2-3.4-0.3
		c-0.2,0-0.8,0.2-1.2,0.2c-0.3,0-0.6,0-0.8-0.3c-0.3-0.5-0.3-1.7-0.3-2.6v-1.4v-1.5c0-1.5-0.2-3.4-0.2-5.4v-0.2
		C378.5,77.8,378.5,77.1,378.6,76.3z M551.2,24.3c1.7,0.9,2.7-1.9,2.8-3.3c0.2-2.2-2.4-2.9-4-1.8c-1.9,1.4-3.9,1.3-2.8,3.3
		C547.9,23.8,549.4,23.4,551.2,24.3z M220.6,146.9c0-0.6-0.5-3.1-0.9-4.2c-0.2-0.5-0.3-1.1-0.3-1.2c-0.3-3.9-0.8-2.5-1.5-7.1
		c-0.2-0.8-1.4-5.7-1.5-6.3c0-0.6-0.2-1.5-0.2-2.2c-0.5-1.4-1.1-4.2-1.1-5.1c-0.2-0.6-0.8-3.4-1.1-4.5c0-0.3-0.2-0.6-0.2-0.9
		c0-1.4-0.5-2-0.8-3.7c-0.5-1.4-2-2.5-2-3.4v-0.2c0.2-0.5,2.8-0.9,3.6-1.2c1.4-0.6,2.8-2.5,3.3-3.9c0.5-1.4,1.7-2.8,2-4.3
		c0-1.1,0.6-1.7,0.6-2.9c0.2-0.6,0.2-1.2,0.2-1.4v-0.2v-0.6c-0.2-0.2-0.2-0.3-0.2-0.5c0-0.2,0-0.3,0.2-0.6c0.2-0.6,0.3-0.9,0.3-2.9
		c0-1.2-0.2-3.4-0.2-7c0-2.8,0-5.1-0.2-5.4v-0.9c0.2-0.3,0.2-1.9,0.2-3.4c0-2.9,0.3-3.2,0.3-4.9c0-0.8,0-1.7-0.2-3.1
		c-0.2-1.5-0.2-2.6-0.3-2.8v-1.4c-0.2-0.6-0.2-1.2-0.2-1.2s-0.2-0.5-0.2-0.8c-0.6-3.6-3.6-9.1-6.2-10.7c-1.4-1.4-2.8-2.3-4.7-3.1
		c-0.8-0.6-3.3-1.5-5-2c-0.6-0.2-1.7-0.3-2.8-0.3c-1.6,0-3.3,0.2-4.5,0.2h-8.7c-2.3,0.2-3.9,0.2-5.1,0.2c-2.9,0-2.9-0.3-7-0.3
		c-2.6,0-3.1,0.5-4.6,0.5c-0.6,0-1.2,0-2-0.2h-0.3c-0.3,0-0.9,0.2-2.5,0.3c-0.5,0.2-2.2,0.2-3.7,0.2c-1.5,0-3.7-0.2-4.8-0.2
		c-9.3,0-8.4,5.6-8.5,9.1c0,0.5-0.2,1.5-0.2,3.1c0,1.7,0.2,2.5,0.2,3.1c0,0.6-0.2,0.9-0.2,1.7c-0.2,1.5-0.2,2.6-0.2,3.7
		c0,2.8,0.3,4.6,0.3,8.2c-0.2,1.9-0.2,3.7-0.2,4c0,0.5,0.2,0.8,0.2,0.9c0,0.5-0.2,0.6-0.3,1.2c0,0.5-0.2,1.5-0.2,2.6
		c0,1.5,0.2,3.2,0.3,3.6c0.2,0.2,0.2,1.4,0.3,3.9c0,5.7-0.5,3.4-0.5,8.5c0,2.2-0.2,3.4-0.2,4.3c0,1.2,0.2,1.7,0.3,2.2
		c0,0.3,0.2,0.5,0.2,0.8c0,0.6-0.3,1.2-0.3,2c0.2,0.5,0.2,1.9,0.2,3.2c-0.3,5.7-0.3,8.7-0.3,12.1v7.9c-0.2,0.8-0.2,3.4-0.2,5.6v2.3
		v1.7c-0.2,1.1-0.5,4.8-0.5,7.4c0,1.4,0.2,3.9,0.2,4.3c0,0.8,0.3,2.3,0.3,3.2c0.2,1.5-0.2,2.8,1.4,3.7h0.3c0.3,0,0.8-0.2,1.2-0.2
		c0.2,0,0.2,0,0.3,0.2c0.5,0.2,0.8,0.3,0.9,0.3c0.3,0,1.6,0.2,1.9,0.3c0.3,0,0.5,0.2,0.8,0.2c0.9,0,1.7-0.5,2.6-0.5
		c0.5,0,0.8-0.2,0.9-0.2c0.2,0,1.1,0.2,1.6,0.2c0.6-0.2,0.9-0.2,1.2-0.2c0.5,0,0.8,0.2,1.9,0.2h1.1h2.9c1.5,0,4,0,4.2-0.2
		c0.6,0,1.5,0.2,2.6,0.2h0.5c1.4,0,2.6-0.6,2.9-1.5c0.5-1.9,0.9-7.3,0.9-9.4c0-1.5-0.3-3.4-0.3-5.3c0-0.6,0-1.2,0.2-1.7
		c0.2-2.9,0.2-4.3,0.2-5.3c0-1.9-0.2-2-0.2-8.3c0.2-3.2,0.2-5.1,0.3-5.4c0-0.3,0.2-0.8,0.2-1.2c0-0.8,0.2-1.5,0.6-1.7
		c0.3-0.3,0.8-0.5,1.2-0.5c1.1,0,2.2,0.8,2.9,1.1c0.8,1.1,2.3,5.3,2.3,7.4c0,1.9,1.7,6.2,1.7,8.5l0.5,1.7c0.3,1.1,1.2,4.6,1.2,5.3
		c0,0.6,0.5,2.9,0.5,3.7c0,0.9,0.5,2.6,0.8,3.7c0,0.8,0.2,1.7,0.3,2.2v0.9v0.2c0,0.5,0.3,2,0.6,2.5c1.2,1.5,3.7,3.1,6.2,3.1h0.8
		c0.5,0,1.4-0.2,2.2-0.2h4.2c1.2,0.2,2.2,0.2,2.8,0.2s0.9,0,1.2-0.2c0.3,0,1.2,0.2,2,0.2h0.5c2,0,2.8,0.5,4.8,0.5
		c0.9-0.2,1.4-0.3,1.7-0.5c0.6-0.3,2.6-1.2,2.6-1.4c0-0.3,0-1.9,0.2-2V154c0-1.2-0.6-5.4-0.9-6C220.8,147.7,220.6,147.2,220.6,146.9
		z M190.1,87.1c-0.3,2.2-1.7,4.2-5.4,4.2h-0.3c-0.3,0.2-0.6,0.2-0.9,0.2c-0.5,0-1.1,0-1.5-0.2c-0.2,0-0.3,0.2-0.5,0.2
		s-0.3-0.2-0.5-0.5c-0.5-0.5-0.5-0.8-0.6-5.4V76c0-0.5,0.2-1.4,0.2-2.3c0.2-3.1,0.5-4,1.1-4.3c0,0,2.5,0.3,3.3,0.3
		c0.2,0,0.8-0.3,1.7-0.3c0.3,0,0.8,0,1.2,0.3c1.9,0.9,1.5,0.2,2.3,2c0.2,0.3,0.5,1.1,0.5,1.4c0.2,2,0.5,3.2,0.5,4.9
		C191,79.8,190.7,82.3,190.1,87.1z M115.8,76.3c0.2-0.9,0.2-2.5,0.2-3.2v-0.3c0.2-1.9,0.2-2.2,0.5-2.3c0.2,0,0.9-0.2,1.6-0.2
		c0.9,0,8.2-0.5,10.5-0.5c0.8,0,2-0.5,2.9-0.5c0.3,0,0.5,0,0.8,0.2h1.2h0.2c0.2,0,0.6,0.2,0.9,0.2h0.3c4.3-0.5,5.1-2.3,5.1-4.3
		c0-0.8-0.2-1.7-0.2-2.5v-0.2v-7.9v-0.2c0-2.9-0.2-5.7-0.6-7.6c-0.5-1.1-0.8-1.4-2-1.9c-0.9-0.3-1.1-0.3-5.7-0.6
		c-2.3-0.2-5.1-0.2-6.4-0.2h-0.5h-5.6c-0.3,0-2,0.2-3.7,0.2c-1.7,0-3.4-0.2-3.6-0.2c-0.2,0.2-0.6,0.2-0.9,0.2
		c-0.2,0-0.5-0.2-0.6-0.2h-0.2c-0.9,0-2.5,0.3-3.3,0.3h-0.5H104h-0.2c-0.9,0-2.6,0-3.9-0.2h-3.4c-0.3,0-0.8,0-1.2-0.2
		c-0.3,0-0.8,0.2-1.2,0.2h-2.6c-1.5,0-2.9,0.2-3.7,0.9C87,46.3,87,48,86.8,48.9c-0.5,2.2-0.5,2.5-0.5,5.7c0.2,0.5,0.2,0.9,0.2,1.4
		v1.5c0,1.5,0,9,0.2,14.7v0.5c0,2.6-0.2,4.8-0.2,5.7c-0.2,0.8-0.2,2-0.2,4.5v1.9l0.5,4.8c0,4.9,0,6.3,0.2,7c0,0.2-0.3,0.9-0.3,1.4
		c0.2,0.6,0.2,1.1,0.2,1.1v0.2c0,0.3-0.3,1.2-0.3,2.3c0,3.4,0.2,5.9,0.2,7.6v0.5c0,3.2-0.2,4-0.2,4.2c0.2,0.2,0.2,1.4,0.2,2.9v3.2
		c0.2,0.2,0.2,0.5,0.2,0.6c0,0.2,0,0.5-0.2,0.6v0.6v1.2c-0.2,0.8-0.3,1.7-0.3,2.9c0,1.7,0.2,3.7,0.2,6l-0.2,5.7
		c0,4.9,0.3,10.7,0.9,14.4c0.2,1.1,0.6,2.2,1.2,2.6c1.4,1.4,1.9,2.3,5,2.5c3.3,0.5,4.8,0.5,6.7,0.5h1.4h3.9c5.9,0,10.2,0.2,15.7,0.2
		h4.3c0.8,0,3.9-0.2,4.3-0.3c0.2-0.2,0.5-0.2,0.9-0.2c0.9,0,2,0.2,2.9,0.2c0.6,0,1.2,0,1.7-0.2c0.6,0,2.3-1.2,2.9-2
		c0.8-0.8,1.1-2,1.2-3.7c0-1.4,0.3-5.7,0.3-8.8c0-1.2-0.2-2.2-0.3-2.6c-0.2-0.3-0.3-1.4-0.3-2.5c-0.2-2.5-0.3-2.3-0.9-3.7
		c-1.9-0.9-2.5-1.4-4.8-1.4h-0.2c-1.6-0.2-3.3-0.2-4.6-0.2h-0.2c-1.4,0-2.5,0-2.8,0.2c-0.2,0.2-0.6,0.2-1.1,0.2h-1.9
		c-1.2,0-1.9,0-2.8-0.2c-0.3,0-1.5,0.2-2,0.2h-2.6c-0.2-0.8-0.2-1.1-0.2-1.4v-2.2v-1.7c-0.2-0.5-0.2-0.8-0.2-1.2
		c0-1.1,0.3-2.2,0.3-4v-1.7c0-2.2-0.2-3.7-0.2-4.6V114v-0.8c0.2-0.9,6.8-1.2,9.1-1.2c0.9-0.2,2-0.2,2.2-0.3h1.1h0.6h0.2h0.3
		c0.8,0,4,0,5,0.2c0.5,0,0.8,0.2,1.1,0.2c0.3,0,0.6-0.2,0.6-0.2c0.6,0,1.6-0.9,1.7-1.9c0.3-0.8,0.5-4.2,0.5-7.6v-0.3
		c0-2.5-0.2-4.8-0.3-6.2c0-0.9-0.2-2.3-0.2-2.9c-0.2-0.5-0.2-1.2-0.3-1.5c-0.3-0.5-1.2-1.1-1.9-1.1c-0.2,0-0.6-0.2-0.9-0.3
		c-0.6-0.2-1.2-0.2-2.2-0.3h-1.5c0,0-0.8,0-1.7,0.2c-1.5,0.3-2.6,0.3-4,0.3h-0.2h-2.8c-1.4,0-3.1-0.2-3.4-0.3
		c-0.2,0-0.8,0.2-1.2,0.2c-0.3,0-0.6,0-0.8-0.3c-0.3-0.5-0.3-1.7-0.3-2.6v-1.4v-1.5c0-1.5-0.2-3.4-0.2-5.4v-0.2
		C115.7,77.8,115.7,77.1,115.8,76.3z M77.5,73.3c0-0.8-0.2-2.9-0.2-4.8c-0.3-6.3-1.1-13.3-4-17.6c-0.9-1.4-2.3-2.5-3.7-3.4
		c-1.9-1.5-4.8-2.6-8.4-2.6c-0.5-0.2-1.1-0.2-1.4-0.2c-0.3,0-1.1-0.2-1.9-0.2c-1.1-0.3-2.5-0.3-3.9-0.3h-2.8c-1.1,0-2.5,0-3.1-0.2
		c-0.3,0-0.8-0.2-1.2-0.2c-2.3,0-6.5,0.5-8.5,0.5c-0.3,0-1.1,0.2-1.7,0.2c-0.5,0.2-1.1,0.3-1.5,0.3c-1.4,0-2.9-0.5-4.3-0.5
		c-0.6,0-1.7,0-2.2-0.2c-1.4,0-1.7,0.5-2.8,0.5c-0.3,0-0.6-0.2-0.9-0.2c-0.9-0.2-1.7-0.2-2.5-0.2c-1.5,0-2.9,0.2-4.8,0.2
		c-1.4,0-2,0.2-2.6,0.3c-0.3,0-0.9,0.2-1.2,0.2c-2,0-5.1,0.2-5.1,2.3c0,1.7-0.2,5.9-0.2,7.4c0.2,2.3,0.3,4.6,0.3,6.2
		c0,0.6,0,1.2-0.2,1.5v4.3C8.7,67.9,9,69,9,70.1c0,1.7-0.2,3.2-0.2,4.6c0.2,4.3,0.6,7,0.6,11.7c0,4-0.2,8.2-0.5,13
		c-0.2,0.3-0.2,0.5-0.2,0.6c0,0.6,0.3,1.1,0.3,1.7v0.5c0,0.6-0.2,1.1-0.3,1.4v0.5c0,0.6,0,1.2,0.2,1.9c0.3,1.4,0.3,3.2,0.3,5.4
		c0,3.6-0.2,7.9-0.2,11.6c0,1.5,0,3.1,0.2,4.3c0,2.3,0,2.8-0.2,3.6c0,0.3-0.2,0.6-0.2,0.8c0,0.2,0.2,0.5,0.2,0.8
		c0,0.2,0.2,0.3,0.2,0.5c0,0.5-0.3,0.8-0.3,1.1c0,0.2,0.2,0.3,0.2,0.5c0,0.2,0.2,0.6,0.2,1.1c0,0.3-0.2,0.9-0.2,1.5v2.3
		c0,1.5-0.3,2.5-0.3,3.6c0,0.5,0,0.8,0.2,1.2c0,0.5,0.2,1.9,0.2,2.9c0,3.1,0.5,1.7,0.5,4.3v1.4c0.6,1.4,1.2,3.1,2.5,3.6
		c3.1,1.4,7.1,1.5,12.1,1.5c0.3-0.2,0.8-0.2,1.1-0.2s0.8,0,1.2-0.2h0.2c0.5,0,1.2,0.3,1.9,0.3c0.8-0.2,1.7-0.3,1.9-0.3
		c0.3-0.2,1.6-0.2,2.5-0.2h0.6h0.2c0.6,0,2.3-0.3,2.8-0.5c1.2-0.9,2.2-5.3,2.2-7.6c0-0.5,0-1.1,0.2-1.4c0-0.3,0.2-1.1,0.2-1.5v-1.4
		c0.2-0.2,0.2-1.4,0.2-2.8c0-1.2,0.2-1.2,0.2-1.5c0.2-0.2,0.2-1.9,0.2-3.6v-2.9c0-3.2-0.2-4.2-0.2-7.3V124v-2.5
		c0-2.2,0.3-2.8,2.6-2.8c0.6,0.2,3.1,0.2,5.6,0.2h2.5h3.3c0.9,0,1.4,0,1.9-0.2c0.2,0,1.4-0.2,2.6-0.2c3.1-0.3,2.3-0.3,4.2-0.9
		c0.8-0.2,2.5-0.9,4.2-1.9c0.3-0.3,0.9-0.8,1.4-1.1c0.3-0.3,1.1-0.9,1.5-1.1c1.2-0.6,2.5-2,3.4-3.4c1.5-2,2.3-3.7,3.4-6.2
		c0.9-2.2,1.5-3.4,1.5-5.7c0-0.9,0.2-2,0.3-2.5c0-0.8,0.3-3.6,0.5-5.9c0.2-2.3,0.2-3.7,0.2-4.8c0-2.6-0.3-1.9-0.6-8.7
		C77.6,75.5,77.5,74.1,77.5,73.3z M50.3,84.9c0,1.9-0.2,1.7-0.8,3.6c-0.5,1.5-0.9,2.5-2.3,3.2c-1.7,1.1-3.7,1.4-5.1,1.4h-0.8
		c-0.3,0-0.5-0.2-0.8-0.2c-0.9-0.2-1.4-0.5-1.5-1.4c0-0.5-0.2-3.7-0.3-8.2v-2.6V75v-0.9v-1.2c0.2-0.3,0.8-1.1,1.1-1.1
		c0.2-0.2,0.6-0.2,1.7-0.2c2,0,2.9,0.3,4,0.8c2.6,1.1,3.1,2.6,4,5.4c0.3,1.1,0.8,3.1,0.8,4.9V84.9z M337,44.3c-0.9,0-2.2,0-2.5-0.2
		h-2c-0.3,0-0.6,0.2-0.9,0.2c-0.8,0-1.1-0.3-1.9-0.3c-0.2,0-0.5,0.2-0.8,0.2c-1.1,0.3-1.5,0.5-2.2,0.5c-0.5,0-0.9-0.2-1.7-0.2
		c-0.9-0.2-1.6-0.2-2-0.2s-0.8,0-1.1,0.2h-0.3c-0.2,0-0.3-0.2-0.5-0.2h-1.6c-0.6,0-1.4-0.2-2-0.2c-0.5,0-0.8,0-1.1,0.2
		c-1.6,0.9-2.3,3.9-3.3,6c-0.3,0.6-3.1,7.9-3.4,8.8c-0.2,0.5-0.9,2.3-1.2,2.9c-0.6,1.2-0.8,2.3-1.4,4.2c-0.2,0.3-2.2,6.5-2.3,6.8
		c-0.2-0.3-2-6.8-2.2-7.1c-0.6-1.9-0.6-2.6-1.2-3.9c-0.3-0.6-1.1-2.5-1.2-2.9c-0.3-0.9-3.3-8.7-3.6-9.3c-0.9-2.2-1.1-4.3-2.6-5.3
		c-0.5-0.2-1.1-0.3-1.9-0.3c-0.9,0-2,0.2-2.5,0.2c-0.3,0-0.9-0.5-0.9-0.5H288h-0.5c-0.3,0-0.6-0.2-1.1-0.2c-0.5,0-1.1,0.2-2,0.2
		c-1.2,0.2-1.7,0.3-2.3,0.3c-0.5,0-0.9-0.2-1.5-0.3c-0.3,0-0.6-0.2-0.8-0.2c-0.8,0-1.1,0.3-1.9,0.3c-0.3,0-0.6-0.2-0.9-0.2h-2h-0.6
		h-1.9h-0.6h-1.1h-0.8c-1.2,0-2,0.3-2.3,0.9c-0.2,0.3-0.3,0.6-0.3,0.9V46c0,0.6,0.3,1.5,0.6,2.5c0.8,2.5,2.6,5.7,4,9.1l2.5,6.5
		c1.9,5.1,8.2,20.2,8.8,21.6c2.5,4.6,4.5,9.3,6.4,13.6h0.5v2.8c0,4.6,0.5,8,0.5,15.1v2.3c0,0.5-0.2,1.1-0.2,2.2v2.2
		c-0.3,1.4-0.5,3.2-0.5,4.5v0.9c0,0.2,0.2,0.5,0.2,0.6c0,0.8-0.3,1.5-0.3,2.2c0,0.3,0.2,0.6,0.2,0.8c0.2,0.5,0.2,1.2,0.2,2
		c0,2-0.3,4.6-0.3,5.7c0,0.8,0.2,2.2,0.2,3.2v8.2c0,0.8,0.2,1.5,0.2,2c0.2,0.3,0.3,0.9,0.3,1.1v0.2c0,0.6,1.2,1.7,2.6,2.2
		c0.6,0.2,1.2,0.2,2.3,0.2c1.4,0,5.4,0.2,6.8,0.6c1.9,0,3.4-0.3,5.1-0.3c0.5-0.2,0.8-0.2,0.8-0.2h0.3h2.2h0.6
		c3.9-0.3,7.3-1.2,7.7-4.3c0.3-2.2,0.3-4.2,0.3-13.3v-10.2c0.2-0.2,0.2-0.5,0.2-0.8c0-0.5,0-0.8-0.2-1.2c0-0.6,0-1.4-0.2-1.7
		c0-0.2,0.2-0.9,0.2-1.7c0.2-0.6,0.2-1.9,0.3-2.6c0-2.2-0.3-3.7-0.3-4.3v-0.3c0.2-0.5,0.2-2,0.3-5.9c0-1.2,0.2-2.9,0.2-3.7
		c0-0.3,0.2-0.8,0.2-0.9c0-0.3-0.2-0.6-0.2-0.6v-3.4v-3.2h0.3c1.9-4.3,3.7-9.1,6.2-13.8c0.6-1.4,7-16.5,8.8-21.6l2.5-6.5
		c1.4-3.2,2.9-5.9,3.7-8c0.5-1.1,0.9-2.3,0.9-3.2c0-0.5,0-0.8-0.3-1.1C341.3,44.4,339.3,44.4,337,44.3z M779.7,125.7
		c-0.2-0.9-0.6-1.7-0.6-2.5c-0.2-1.7-0.8-2.8-0.8-4.3c-0.2-2-0.5-3-0.8-4.7c-0.2-1.4-0.6-2-0.6-3.4c0-0.9-0.9-3.1-0.9-4.2
		c0-1.1-0.9-2.6-1.2-4.5c-0.6-2.5-0.8-4-1.2-6.7c-0.6-3.1-1.2-4.8-1.5-8.1c0-2.5-0.5-2.2-0.8-3.6c-2-9-3.3-16-5.1-23
		c-0.2-0.8-0.5-0.6-0.5-2.2c0-0.8-0.2-1.4-0.2-1.7c-0.2-0.5-0.2-0.8-0.2-1.1v-0.3c0-0.5,0-0.9-0.5-1.4c-0.3-0.6-0.5-0.3-0.5-0.9
		v-0.5c0-1.7-0.8-4-1.5-4.8c-0.3-0.3,0-2.5-1.7-3.3c-0.3-0.2-3.6-0.3-3.9-0.5h-0.2c-0.5,0-1.1,0.3-1.5,0.3h-0.2
		c-0.3,0-0.6-0.2-0.9-0.2c-0.5,0-0.9,0.2-1.4,0.2c-0.2,0-11.9,0-12.2,0.2h-1.5c-0.3-0.2-0.6-0.2-0.8-0.2c-0.5,0-0.9-0.2-1.4-0.2
		c-0.3,0-0.6,0.2-0.9,0.2H736c-0.5,0-1.1-0.3-1.5-0.3h-0.2c-0.3,0.2-3.6,0.3-3.9,0.5c-1.7,0.8-1.4,3-1.7,3.3
		c-0.8,0.8-1.5,3.1-1.5,4.8v0.5c0,0.6-0.2,0.3-0.5,0.9c-0.5,0.5-0.5,0.9-0.5,1.4v0.3c0,0.3,0,0.6-0.2,1.1c0,0.3-0.2,0.9-0.2,1.7
		c0,1.6-0.3,1.4-0.5,2.2c-1.9,7-3.1,14-5.1,23c-0.3,1.4-0.8,1.1-0.8,3.6c-0.3,3.3-0.9,5-1.5,8.1c-0.5,2.6-0.6,4.2-1.2,6.7
		c-0.3,1.9-1.2,3.4-1.2,4.5c0,1.1-0.9,3.3-0.9,4.2c0,1.4-0.5,2-0.6,3.4c-0.3,1.7-0.6,2.6-0.8,4.7c0,1.6-0.6,2.6-0.8,4.3
		c0,0.8-0.5,1.6-0.6,2.5c-1.2,7.9-2.9,17.1-4.6,24.4c-0.2,0.9-0.2,2.6-0.3,3.6l-0.5,3.6v0.5c0,1.2,1.4,0.6,3.1,0.9
		c0.5,0,1.7,0,2.5,0.2c1.2,0,2,0.2,2.5,0.2c0.8,0,0.8-0.2,1.1-0.3c0.5-0.2,0.9,0,1.4,0c0.5,0,1.1,0.2,1.7,0.2c0.3,0,0.8-0.2,1.1-0.2
		c0.6-0.2,2.2-0.2,3.3-0.2h1.1c0.6,0,1.4-0.3,2.2-0.3h0.5c0.9,0,1.5,0.2,2.6,0.2c2.9-0.2,3.9-1.9,4.5-4c0-0.5,0.3-1.1,0.3-1.2
		l2.3-14.6v-0.2c0-0.8,0.5-1.1,1.7-1.2c1.7,0,5,0,5.4,0.2c0.6,0.2,1.4,0,2,0c0.6,0,1.7,0.2,2.3,0c0.5-0.2,3.7-0.2,5.4-0.2
		c1.2,0.2,1.7,0.5,1.7,1.2v0.2c0,1.9,2.3,13.7,2.5,14.9c0,0.2,0.3,0.8,0.3,1.2c0.3,1.2,0,3,0.9,3.7c0.6,0.5,2.3,0.3,3.6,0.3
		c1.1,0,1.5-0.5,2.5-0.5h0.5c0.8,0,1.5,0.3,2.2,0.3h1.1c1.1,0,2.6,0,3.3,0.2c0.3,0,0.8,0.2,1.1,0.2c0.6,0,1.2-0.2,1.7-0.2
		c0.5,0,0.9,0.2,1.4,0.3c0.3,0.2,0.3,0.3,1.1,0.3c0.5,0,1.2-0.2,2.5-0.2c0.8-0.2,2-0.2,2.5-0.2c1.7-0.3,2.6-0.9,2.6-2.8v-0.5v-2
		c0-0.9-0.2-2.6-0.3-3.6C782.6,142.7,780.9,133.6,779.7,125.7z M749.2,111.1h-0.8h-6c-1.4,0-2.3-0.3-2.3-1.7c0-0.5,0-1.2,0.2-2.3
		c0,0,0.8-3.6,1.2-5.9c0.5-2.6,0.8-4.5,0.9-5c0.3-0.3,0.5-1.6,0.6-2.3c0.2-0.6,1.1-3.6,1.2-4.3c0.5-1.4,0.9-5.4,1.4-7.3
		c0.6,1.6,1.2,5.9,1.7,7.3c0.2,0.8,1.1,3.7,1.2,4.3c0.2,0.8,0.3,2,0.6,2.3c0.2,0.5,0.5,2.3,0.9,5c0.5,2.3,1.2,5.9,1.2,5.9
		c0.2,1.1,0.2,1.9,0.2,2.3C751.5,110.8,750.6,111.1,749.2,111.1z M711.1,69c0.2-0.5,0.5-2.3,0.5-5.1c0-0.9-0.2-1.9-0.2-3
		c-0.3-2.3-0.3-4.8-0.3-7.1V50c0-2.3-1.7-4.7-4-4.7h-0.5c-0.5,0-1.2-0.2-1.4-0.2c-0.3-0.2-1.1-0.2-1.9-0.3h-2.2
		c-0.3-0.2-0.5-0.2-0.8-0.2c-0.9,0-1.9,0.5-2.6,0.5c-0.3,0-0.5,0-0.8-0.2c-0.3-0.2-1.7-0.3-3.1-0.3c-1.1,0-2.3,0.2-3.4,0.2
		c-0.8,0-2.8,0.2-4.5,0.2c-1.5-0.2-3.4-0.2-4-0.2c-0.5,0-1.1,0.2-2,0.2c-0.8,0-2.2-0.2-4.2-0.2c-1.1,0-1.9,0-2.5,0.2v-0.2
		c-1.1,0-2.3-0.2-3.6-0.2c-1.5,0-3.1,0.2-3.4,0.3c-0.2,0.2-0.3,0.2-0.5,0.2c-0.3,0-0.5,0-0.9-0.2c-0.8-0.2-2.8-0.3-4.2-0.3
		c-0.6,0-1.1,0-1.4,0.2h-0.6c-0.8,0.2-1.5,0.2-1.9,0.3c-0.2,0-0.9,0.2-1.4,0.2h-0.8c-0.8,0-1.1,0.2-1.7,0.6
		c-0.5,0.5-1.2,1.6-1.2,1.9c0,0.5-0.6,1.4-0.8,2.2c-0.3,0.8-0.3,1.9-0.3,3c0,1.6,0.2,3.4,0.2,5.3c0,0.9,0,1.7-0.2,2.6
		c0,1.1-0.2,2-0.2,3c0,2.8,0.3,4.7,0.5,5.1c0.8,1.6,2.8,2.3,5.1,2.3c0.5,0,1.1,0.2,1.2,0.2c0.5,0.2,0.2,0.3,2.8,0.3
		c0.8,0,1.5,0,1.5,0.2c0.2,0,0.6-0.2,0.9-0.2c0.6-0.2,0.9-0.3,1.5-0.3h0.5h1.1h0.3c0.3,0,0.2,0.2,0.3,0.5c0.3,0.8,0.3,1.7,0.3,2v0.2
		v1.4c-0.2,1.1-0.3,2.3-0.3,3.7v14.3c0,0.3,0,2-0.2,3.9v2.5c0,4.3,0.3,5.1,0.3,9c0,10.9-0.5,18.8-0.5,27.8c0,3,0,6.1,0.2,9.5v4
		c0.5,4.5,0.3,7.6,5.9,8.1c0.6,0,1.2,0.2,1.7,0.2h0.2c0.5,0,0.9-0.2,1.2-0.2c1.2,0,2,0.6,3.1,0.6c0.3,0,0.8,0,1.2-0.3
		c0.2,0,0.6-0.2,0.9-0.2c0.6,0,1.4-0.2,2-0.2c0.3,0,0.6,0,0.9,0.2h0.6c1.1,0,3.1-0.2,4-0.2c0.5,0,1.5,0,2.5-0.2h1.5
		c0.3-0.3,0.9-1.1,1.5-1.1c0.9-0.3,1.1-0.8,1.1-3v-3v-5.6V142c-0.3-11-0.2-17.2-0.6-26.2v-7.3c0.2-3.1,0.2-6.5,0.2-7.5
		c0.2-1.1,0.2-2.3,0.2-3c0-0.5,0.2-1.1,0.2-1.2c0-0.2-0.2-3-0.2-6.2c0-5.3,0.2-10.4,0.3-15.1c0-1.7-0.5-2.8-0.5-3.4
		c0-0.5,0.3-0.6,1.1-0.6h0.8h1.1h0.5c0.3,0,0.3,0,0.3,0.2v0.2c0.3,0.2,0.8,0.2,0.9,0.2c0-0.2,0.8-0.2,1.5-0.2c2.6,0,3.9-0.2,4.3-0.3
		c0.2,0,0.8-0.2,1.2-0.2C708.3,71.3,710.3,70.5,711.1,69z M481.9,83.4c-0.2-1.9-0.3-4.2-0.3-5.1v-1.9v-0.6c0-2.2,0-4.2-0.2-6
		c-0.1-1-0.2-1.9-0.3-2.8c-3.7-0.6-6.7-2.5-7.7-5.3c-2.1,3.2-7,4.9-12.3,3.8c-5.6-1.2-9.5-5.1-9.7-9.2c-3.2,2.7-9,2.2-13.6-1.4
		c-1.7-1.4-3-3-3.9-4.7c-0.3,0.2-0.6,0.5-0.9,0.7c-1.1-2.2-1.9-4.6-2.6-7c-0.1,0-0.2,0-0.3,0c-1.2,0.2-2.6,0.2-3.3,0.3h-1.4
		c-0.8-0.2-2.2-0.2-3.4-0.2c-1.2,0-2.3,0-2.8,0.2c-0.3,0.2-0.8,0.2-1.1,0.2c-0.5,0-1.1,0.2-1.4,0.2c-0.5,0.2-1.2,0.2-1.5,0.2
		c-2.6,0-3.3,2-3.3,4.5c0,1.7,0.3,3.6,0.3,5.1c0.2,3.4,0.2,5.1,0.3,5.4c-0.2,1.1-0.3,4.2-0.3,5.7c-0.2,0.9-0.2,2-0.2,2
		c-0.2,0.2-0.2,0.6-0.2,1.4c0,0.8,0,2,0.2,2.5v2.2v6.3v9.4c0.2,3.6,0.2,6.2,0.2,6.3v2.2c0,3.2-0.3,11.9-0.3,14.5
		c0.2,0.8,0.2,2.5,0.2,3.7v3.2c0,1.7,0.3,4.3,0.3,8.8c-0.3,1.9-0.3,2.8-0.3,7.3c0.2,2,0.2,5.7,0.2,8.3c0,2.6,0.2,3.9,0.2,4v0.3v0.9
		c-0.2,0.5-0.2,0.8-0.2,1.1c0,1.4,0.6,2.3,0.6,3.7c0,3.2,2.6,4.2,6.2,4.2c1.6,0.5,3.4,0.5,6.2,0.5c1.5-0.2,2.6-0.3,5-0.3
		c7.9,0,10.1,0.2,16.4,0.2c4.2,0,1.9-0.6,5.3-0.6c0.6,0,1.1,0.2,1.6,0.2c0.5,0,0.9-0.2,1.2-0.2c0.6-0.2,5.1-0.2,6.4-0.5
		c4.5-0.6,7.9-1.7,9.6-3.4c0.3-0.3,0.9-0.9,1.2-1.4c3.1-2.9,5.1-6.8,6.5-10.7c0.3-0.9,0.6-1.9,0.8-2c0-0.2,0.3-1.1,0.5-2
		c0.3-0.9,0.3-2.5,0.5-3.1c0.6-1.9,1.1-7.1,1.2-8.2l0.3-2.5c0-3.1,0.2-7.4,0.2-11.1l0.2-1.7v-1.5v-5.7c0-2,0-5.9,0.2-8.5
		c0-2.8,0-5.4-0.2-6.3C482,87.7,481.9,85.2,481.9,83.4z M453.4,116.3c-0.6,6.2-0.2,5.4-0.9,11.6c-0.3,2.3-4.3,4.6-5.9,4.9
		c-0.5,0.2-0.6,0.2-0.6,0.3h-0.5c-1.1-0.2-2.2-0.3-2.3-0.3h-0.3c-0.3,0-0.6,0.2-1.1,0.3c-0.8,0-0.9-0.2-0.9-1.1
		c0-0.5-0.2-1.7-0.2-2.8v-7.9c0-5.7-0.3-16.2-0.3-16.4v-4c-0.2-1.5-0.2-3.7-0.2-5.7c0-2.9,0-5.4,0.2-6.8c0-8.5,0.2-7.3,0.2-12.1
		c0-0.5,0.2-1.5,0.2-2.8c0-1.2-0.2-2.6-0.2-3.6c0-1.1-0.2-1.7-0.2-2.2c0-0.8,0.2-0.9,0.5-1.2c0.2-0.2,0.3-0.3,0.5-0.3l-0.2-0.2
		c0,0,0-0.2,0.2-0.2c0.5-0.2,0.9-0.2,1.4-0.2c0.5,0,2.2,0.2,2.9,0.2c0.5,0.2,3.1,1.1,3.6,1.5l1.4,1.7c0.8,0.8,1.1,1.2,1.1,1.7
		c0.3,0.5,0.8,1.5,0.8,2c0,0.3,0,0.9,0.2,1.2c0.2,0.6,0.2,1.4,0.2,2v2.6c0.2,0.8,0.2,3.6,0.3,5.9v5.6c0.2,0.8,0.2,1.9,0.2,2.6
		c0,0.6,0,1.5,0.2,2.5V116.3z M919.6,144.8c0.2-0.3,0.2-3,0.2-4c-0.2-4.2-0.3-6.5-1.2-7.3c-0.3-0.5-0.6-0.6-1.1-0.6
		c-0.2,0-0.3,0.2-0.6,0.2c-0.5-0.2-0.8-0.2-1.2-0.2c-0.2,0-0.5,0-0.9,0.2c-0.5-0.2-0.8-0.2-1.4-0.2c-0.3,0-0.9,0-1.2,0.2
		c-0.9,0-2.5-0.3-4.2-0.3c-2.2-0.6-2.3-0.8-2.5-1.1c-0.5-0.8-0.6-1.4-0.6-13.5c-0.2-3.6-0.2-6.8-0.2-8.9c-0.2-2.2-0.2-4.3-0.2-5.1
		c0.2-1.4,0.2-1.9,0.3-4.8v-3.7c0.2-2.5,0.2-3.7,0.2-10.9v-5.3c0-4.7,0.2-6.7,0.2-10.7v-4.5c0.2-0.8,0.2-1.7,0.2-2
		c0.2-0.5,0.2-1.7,0.3-2.8c0-1.2,0.2-2.3,0.2-3.7c0-1.2-0.2-2.8-0.2-5.1c0-3.7-0.2-4-0.5-4.8c-0.5-0.8-0.6-0.9-2-0.9h-1.4h-2.9
		c-2.2,0-3.6,0-4-0.2h-0.5c-0.5,0-1.2,0.2-2,0.2c-1.7,0-3.7,0.2-5.3,0.2c-0.8,0-1.5,0-2-0.2c-0.5-0.2-2.5,0-3.9,0
		c-0.6,0-1.1,0-1.2,0.2c-2,0.9-2.3,1.9-2.3,3.4c0,0.6,0.2,1.1,0.2,1.9c0,0.6-0.2,1.2-0.2,1.9v1.7c0,3,0.3,5.4,0.3,8.5
		c0,1.2-0.2,2.5-0.3,4c-0.2,0.9-0.2,3.6-0.2,5.6v2c0,0.9,0.3,2,0.3,2.5v0.2v0.8c0,0.5,0,1.6-0.2,3c0,1.7,0.3,2,0.3,3.4V84
		c0,0.6,0.3,1.1,0.3,1.7c0,0.2-0.2,0.3-0.2,0.5c-0.2,0.6-0.3,2.3-0.3,7.5c0,2.5,0,4.3-0.2,4.7c0,0.9,0.3,3.3,0.3,4.2
		c0,0.5,0,3.1-0.2,6.1c-0.2,2.2-0.2,3.9-0.2,5.3c0,4.2,0.3,5.6,0.3,7.5c0,1.1-0.2,2.5-0.5,4.7c-0.2,1.4-0.2,1.6-0.2,6.2
		c0,1.2,0,3-0.2,3.7v3.1c0,0.3,0.2,1.6,0.2,3s-0.2,3-0.2,4c0,2.3,0,5.1,0.2,5.4l0.3,1.7c0,0.5,0.3,1.1,0.5,1.4
		c1.4,1.9,1.5,2,2.6,2.6c0.6,0.3,1.2,0.6,1.5,0.6c1.5,0.5,2.5,0.6,4.3,0.9c1.1,0,3.3,0,4-0.3c0.3-0.2,0.6-0.2,0.9-0.2
		c0.5,0,1.1,0.2,1.5,0.2c0.5-0.2,3.6-0.2,4.2-0.2c0.5,0.2,1.1,0.2,1.4,0.2c0.5-0.2,1.1-0.2,1.7-0.2c1.1,0.2,2.8,0.2,4.2,0.2h1.7
		c0.8,0,3.6,0.2,4.5,0.2h1.1c4.8,0,7.3-0.2,8.1-4v-2.6v-1.1c0.2-0.2,0.2-0.6,0.2-1.1c0-1.2-0.3-3.3-0.3-4.5V144.8z M860,104.7
		c-0.5-1.1-5.1-4.5-5.1-6.1c0-0.2,0-0.3,0.2-0.5c0.8-0.8,1.7-2.6,2.2-3.1c0.5-0.5,2.2-3.6,2.3-3.6c0.2-0.2,0.8-1.6,2-3.7
		c1.5-3.1,2.5-6.4,3.3-10.6v-2.3v-1.7c0.2-1.7,0.2-3.6,0.2-4v-0.5c0-1.1-0.3-2.8-0.6-3.7c-0.8-2.3-0.9-4.5-2.3-7.3
		c-1.7-4.2-2.3-6.1-5.1-8.2c-2.2-1.7-3.4-2.3-4.6-2.8l-1.7-0.5c-0.5-0.2-2-0.9-3.6-1.2c-4.2-0.9-5.7-1.2-8.2-1.2
		c-1.9,0-4,0.2-7.9,0.3h-1.1h-3.6c-1.1,0-1.9,0-2,0.2c0,0-0.8-0.2-1.7-0.2c-0.8-0.2-3.1-0.2-5-0.2l-3.6-0.2
		c-1.4,0.5-1.5,0.8-3.9,0.8c-0.5,0.2-1.1,0.2-1.5,0.2s-0.8,0-0.8-0.2c-0.3-0.2-1.5-0.2-2.6-0.2c-1.1,0-2.3,0-2.8,0.2
		c-1.1,0.2-1.7,0.5-2.6,1.2c-0.3,0.3-0.8,0.5-0.8,0.5c-0.9,0.9-2.5,3.1-2.9,4.5c0,0.3-0.2,0.8-0.3,0.9c-0.5,1.1-0.8,3.4-0.8,5.6
		c0,1.1,0,2,0.2,3c0,2.6-0.3,7.9-0.3,11.2c0,1.2,0,2.3,0.2,2.8v5.3c0,0.8,0,1.7-0.2,3v2.2v0.9v2.5c0,2.2,0.2,3.9,0.2,6.2
		c0,2.3-0.2,5.3-0.3,9.9v9.2v12v3v3.1v2.5c0,2.2,0.2,3.9,0.3,7.8l0.2,10.1c-0.2,0.5-0.2,0.9-0.2,1.4c0,1.2,0.3,2.8,0.9,3.9
		c0.9,1.6,3.4,1.9,6.2,1.9c2.3,0,5-0.2,7.4-0.2c0.2,0,2.5-0.6,3.3-0.6h0.2c1.4,0.3,4.5,0.5,7,0.5h2.2c0.3-0.2,0.5-0.2,0.6-0.2
		c0.3,0,0.3,0,0.5,0.2c0.5,0.2,1.7,0.2,3.3,0.2c1.5,0,3.4,0,4.6-0.2h0.9c1.1,0,2.3,0.2,3.7,0.3c0.6,0,1.9-0.3,2.8-0.3
		c0.3,0,0.6,0.2,0.8,0.2c3.1-0.2,5.9-1.2,8.1-2c1.2-0.8,2.2-1.1,3.1-2c1.4-0.8,1.9-0.9,3.4-2c0.2-0.2,0.9-0.8,1.5-1.4
		c4.2-4.2,5-5.3,6.8-8.9c1.2-2.2,1.5-3,2-4.7s1.1-3,1.4-5.7l0.3-2.2c0.2-0.5,0.2-0.9,0.2-1.4V128c0.2-0.3,0.2-1.7,0.2-3.9
		c0-4.2-0.5-4-0.5-6.8C865.7,111.7,862.4,108.6,860,104.7z M835.5,121.6l-0.3,2.3c-0.2,0.9-0.6,2.5-1.1,3.3c-0.3,0.6-1.9,2-2.2,2.8
		c-0.5,0.6-3.4,0.8-5.3,1.2c-1.2,0.3-1.7,0.5-2,0.5c-0.2,0-0.3,0-0.5-0.2c-0.6-0.5-0.8-6.1-0.8-7.8c0.2-2.5,0.2-4.7,0.2-6.2
		c0-1.6,0-2.6-0.2-2.8c0-1.1-0.2-1.9-0.2-2.3c0-0.6,0.2-0.8,1.1-0.8h0.6h3.7c0.3-0.2,0.6-0.2,1.1-0.2c2.2,0,4.8,1.6,5.3,3.1
		c0.5,1.7,0.6,3.6,0.6,5.1C835.7,120.4,835.5,121.2,835.5,121.6z M835,79.1c-0.2,0.5-0.5,0.9-0.5,0.9c0,0.2-0.3,0.6-0.8,1.2
		l-0.9,1.4c-0.5,0.6-2.6,2.3-2.9,2.3c-0.6,0.6-4.5,1.2-5.9,1.2c-0.8-0.3-0.9-0.8-0.9-1.9v-2c-0.2-1.2-0.2-3-0.2-3.7
		c-0.2-1.6-0.3-5.1-0.3-6.8v-0.9c0-0.8,0.2-1.1,0.6-1.2c0.8-0.9,2.2-1.2,3.7-1.2c3.6,0,7.9,1.7,8.4,3.7c0.3,0.5,0.3,1.6,0.3,2.8
		C835.7,76.4,835.5,78.3,835,79.1z M517,45.1c-0.1,0-0.3,0-0.4,0c-0.1,0.5-0.3,0.9-0.4,1.4c-0.8,2.4-1.7,4.7-2.9,6.8
		c-0.2-0.2-0.5-0.5-0.7-0.7c-0.9,1.1-2,2.2-3.2,3.1c-4.1,3-9,3.5-12.3,1.7c0,2.9-1.8,5.6-4.8,7.5c-0.1,0.2-0.1,1.1-0.1,2v3.2h28.2
		c0-1.6,0-2.5,0.1-4.3v-2.9c0-0.6,0.2-4,0.2-5.1v-4c-0.2-1.9,0-1.5,0-2.2v-0.8c0-2-0.2-3.4-0.6-4.3C519.5,45.5,518.5,45.1,517,45.1z
		 M519.9,134.2c0-2,0.2-6.2,0.3-6.8c0-0.9,0-2.3-0.2-12.5v-5.7c0-0.9,0.2-3.4,0.2-5.7v-2.3v-2.6v-2.2v-1.2c0-2-0.2-3.1-0.2-3.9v-0.6
		c0.2-1.4,0.3-6.3,0.3-8.8v-2.3c0.1-0.3,0.1-0.7,0.2-1.4h-28.4v0.2c0,0.9-0.2,2.9-0.3,3.4c0,0.3,0.2,8,0.3,9.7v1.1v0.8
		c0,0.6,0,1.4,0.2,3.2v2.8c0,0.3-0.2,0.8-0.2,1.1c0,0.3,0.2,0.6,0.2,0.8v6.5c0,0.9,0.2,2.8,0.2,4.8c0,1.9-0.2,3.6-0.2,4.3v1.5
		c0,3.9,0.6,11.6,0.6,13.9v0.9v0.5v0.5c0,0.9-0.2,2.6-0.2,3.7c0,0.6,0,0.9,0.2,1.1c0,0.2,0,0.6-0.2,1.2c-0.2,0.3-0.2,0.5-0.2,0.6
		c0,0.5,0.2,0.8,0.3,0.9v0.9c-0.2,0.5-0.2,1.2-0.2,2c0,0.8,0.2,2.6,0.2,3.9c0,2-0.2,4.3-0.2,5.7c0,0.8,0,1.2,0.2,1.4
		c0.3,0.5,2.2,1.2,2.9,1.5c1.6,0,2,0.6,4,0.6c4.2,0,2.9-0.3,7.1-0.3c4.2,0,9.8-0.3,11.6-0.6c0.9-0.2,1.5-0.6,1.9-1.4
		c0-4-0.6-18.2-0.6-20.2V134.2z M582.9,91.7c2.3-3.2,2.9-4.5,4.3-7.4c0.5-0.5,0.8-1.2,1.1-1.7c1.2-3.1,5.7-9.1,7-12.2
		c1.4-1.9,2.3-3.7,3.7-5.6c0.8-2,2.3-3.7,3.3-5.4c0.3-0.2,0.6-0.8,0.9-1.2l3.6-4.8c0.9-1.4,1.7-2.9,1.7-5.3c0-0.5-0.9-2.8-1.4-2.8
		c-0.5-0.3-2.5-0.8-2.9-0.8c-2.2,0-4-0.5-8.2-0.5c-1.6,0-2.2,0-2.9-0.2h-0.3c-0.3,0-0.8,0.2-1.1,0.2h-4.2c-4.3,0-6,0.2-7.1,1.2
		c-0.9,0.8-1.5,2.2-2.8,4.5l-4.6,6.3c-0.9,1.4-0.8,2.2-1.9,3.6c-0.3,0.8-0.6,1.4-0.6,1.5l-1.2,2.3c-0.5,0.5-1.1,1.4-1.4,2.2
		c-0.5,0.9-1.5,2-1.9,3.1c-0.6,0.9-1.5,2.3-1.9,3.4l-1.1,1.7c-0.3,0.6-2.5,5.6-2.8,5.6c-0.3-0.2-0.3-3.6-0.5-7V62.4l-0.2-3.1V57
		c0-3.1,0.2-6.6,0.2-9c0-1.1,0-1.9-0.2-2.3c-0.2-0.6-0.6-0.9-1.4-1.1c-0.5-0.2-1.4-0.5-1.9-0.5c-0.5,0-3.6,0.2-4,0.2
		c-0.5,0-2.6-0.3-3.3-0.3h-2.6c-2.8,0-3.3,0-4,0.3c-0.5,0.2-0.8,0.2-0.9,0.2c-0.3,0-0.5,0-0.8-0.2h-1.4c-1.2,0-2.6,0-3.9,0.2
		c-2.6,0.2-3.6,0.6-4,1.4c-0.2,0.3-0.2,0.6-0.2,0.9c0,0.6,0.2,1.2,0.2,2.2c0,0.6,0,1.2-0.2,2c0,0.5-0.2,1.4-0.2,2
		c0,0.5-0.2,1.1-0.2,1.9c0,2.3,0.3,5.1,0.3,6.5c-0.2,0.3-0.2,0.6-0.2,0.9v0.5c0.2,0.3,0.2,0.6,0.2,1.1c0,0.8-0.2,1.7-0.2,2.3
		c0.2,0.5,0.2,0.9,0.2,1.2c0,0.8-0.2,1.4-0.2,2.5c0,2.3,0.2,4.3,0.2,6c0,1.5-0.2,2.8-0.2,3.1V82v1.4v4.2c0,0.8,0.2,1.2,0.2,1.7
		c0,0.5-0.2,0.9-0.2,1.5v2.8v0.9v1.1c0,0.2-0.2,0.5-0.2,0.8c0,0.2,0,0.3,0.2,0.5v6.5v13.6v6.8v1.7v0.6v1.2v1.1
		c0,0.2,0.2,0.3,0.2,0.5c0,0.2-0.2,0.3-0.2,0.5c0,0.5,0,1.1,0.2,2.2c0,0.8,0.2,1.4,0.2,1.5c0,0-0.2,0.3-0.2,0.8
		c0,0.5,0.2,1.1,0.2,1.9c0,1.9,0,2.9-0.2,3.9v2c0.2,0.6,0.2,2,0.2,2.9v0.6c0,0.2-0.2,2.5-0.2,3.7v1.5c0,2.9,0.2,5.3,1.4,6.3
		c0.9,0.9,2.2,1.2,4.3,1.2h2.2c0.8,0,1.5,0,2.6-0.2c0.9,0,1.5-0.2,2.2-0.2c1.6,0,2,0.3,5.1,0.3c1.6,0,3.7-0.2,4.8-0.2h2.2
		c1.7,0,2.9-0.2,2.9-1.2c0.3-1.9,0.5-2.5,0.5-3.1c0-0.2-0.2-0.5-0.2-0.8c0-0.5-0.2-1.1-0.2-1.7c0-1.7,0.3-3.6,0.3-4.5
		c0-1.4,0.3-2.5,0.3-4.6v-2v-2.3c0-0.5,0-0.9,0.2-1.2c0.2-0.5,0.2-1.1,0.2-1.2c-0.2-0.2-0.2-0.5-0.2-1.1c0-0.5,0-1.2,0.2-1.9
		l0.2-4.2c0-1.1,0.2-5.6,0.3-5.9c0-0.3,0.2-0.8,0.2-0.9v-0.3c0-0.2-0.2-1.1-0.2-1.2v-2.5c0.3,0.2,4.2,9.9,4.3,10.5
		c0.3,2,1.7,4.2,2.2,6c0.3,1.2,1.2,2.3,1.9,3.9c0.9,2.3,1.9,3.2,2.3,6c0.2,0.6,0.2,1.2,0.3,1.5c0,0.2,0.3,0.8,0.5,1.2
		c0.6,1.1,1.5,3.2,1.5,3.7l0.6,1.2c0.3,0.8,1.2,3.7,1.2,4.2c0.3,1.1,1.2,2.3,2.8,2.3c0.2,0,0.6,0,0.9-0.2h3.7h1.4l0.9-0.2h1.4
		c1.1,0,2.2,0,2.9,0.3c0.2,0.2,0.5,0.2,0.8,0.2c0.8,0,1.7-0.2,2.5-0.2h0.6c1.5,0.2,3.3,0.2,5,0.2h4.8h0.8c2.9,0,4-1.2,4-2.9
		c0-0.3-0.2-0.6-0.2-0.9c-0.5-1.9-1.2-3.9-2.5-5.4c-0.3-0.8-1.1-2-1.5-2.9l-1.5-2.9c-0.9-1.7-2.2-5.6-3.1-7.1
		c-1.2-3.1-4.5-11.1-5.6-13.4c-0.2-0.5-0.5-0.9-0.5-1.1c0,0-0.2-0.6-0.5-1.1c-1.2-2.3-1.7-4.6-3.3-7.4c-0.5-0.9-2.2-5.3-2.2-6
		c-0.9-1.9-2.2-5.7-3.1-7c-0.3-0.6-1.9-3.9-1.9-4.3c0-0.3-0.3-0.6-0.3-1.1c0-0.3,0-0.5,0.2-0.8C582.1,93,582.4,92.5,582.9,91.7z
		 M525.9,12c-1.2-0.6-1.4-1.1-2.3-1.6c-0.1-0.1-1.5-1.1-1.5-1.1c-0.2,0.1-2.5-1.2-3-1.4c-0.7-0.4-3.4-0.9-4.4-0.6
		c-0.1,0-0.1,0.1-0.1,0.3c-0.5,0.4-1.8,1.4-2.2,2.1c-0.5,0.9-0.5,3.2-1,4.1c-0.5,0.9,0.9,2.8-0.6,5.5c-1,1.8,0.1,4.8,1,6.5
		c0.4,0.8,1.3,1.2,2.1,0.9c0.5-0.2,0.8,0,1,0.3c0,0.9,0.1,1.4,0.1,1.4c0,0,2.5,1.3,2.5,1.3l0.4,0.2c1,0.5,2.8,0.7,2.9,0.5
		c0.8-0.3,1.5-1.1,2.1-2.2c0.5-1,1-2.3,1.5-3.2c0.7-1.4,2.1-3.6,3.2-5.8c0.5-1,1-1.9,1.2-2.7C529.3,14.3,528.5,13.7,525.9,12z
		 M1000.4,71.8c0-2.8-2.8-12.7-4.2-15.5c0-0.2-0.3-0.6-0.6-1.2c-0.6-1.2-1.2-2-2-3.1c-0.8-0.9-3.1-3.7-4.3-4.3
		c-1.1-0.5-3.1-1.1-4.2-1.7c-1.7-0.6-3.3-1.4-4.8-1.9c-0.3,0-0.9-0.2-1.2-0.2h-0.9h-0.6c-0.5,0-1.1-0.2-1.4-0.2
		c-0.6-0.2-1.5-0.2-3.1-0.2h-2.3l-7.7,0.2c-0.3,0-0.6,0-0.9,0.2c-0.2,0-0.8,0.2-1.4,0.2l-2.6-0.2c-4.8,0.3-6.5,0.5-10.1,1.1
		c-1.2,0-1.5,0-2,0.3c-0.3,0.3-0.8,0.5-0.9,0.5c-0.3,0-0.6,0.2-0.8,0.2l-1.5,0.6c-2.3,0.9-4.6,2-6,4.5c-0.9,1.2-1.1,1.7-1.4,3
		c-0.9,3.3-3.1,7.9-3.1,12.3c0,0.5-0.2,1.1-0.2,1.6c-0.2,0.5-0.3,1.1-0.3,1.4c0,1.2-0.6,1.7-0.6,3.1c0,0.3,0.2,0.6,0.2,0.9
		c0,0.3-0.2,0.6-0.3,1.2c-0.3,1.2-0.5,1.7-0.5,2.3c0,0.3,0.2,0.6,0.2,1.2c0.2,0.8,0.2,1.2,0.2,1.7c0,1.6-0.3,2.5-0.3,5.1
		c0,2,0,3.1-0.2,3.9c-0.2,5.4-0.2,16.9-0.2,21.9v0.9c0,4.7,0.5,12.1,0.5,15.7v2.3c0,4.8,0.3,6.5,0.3,11c0,1.4,0.2,2.6,0.8,3.6
		c0.6,2.3,1.7,3.6,2.6,5.4c0.5,1.1,1.9,3.3,2.6,4c0.9,1.1,2.6,1.6,3.6,2.5c0.3,0.6,2,1.4,2.9,1.4c0.3,0,0.6,0.2,0.9,0.2
		c0.2,0.2,0.6,0.2,0.8,0.2c0.3,0.2,0.8,0.3,1.1,0.3c0.3,0.2,0.9,0.2,1.4,0.2c0.6,0,2.8,0.5,3.6,0.5c0.3,0,0.5-0.2,0.8-0.2
		c0.5,0,1.1,0.2,2,0.3h2c1.2,0,2.3,0.5,3.3,0.5h0.3h0.8c0.3,0.2,0.6,0.2,1.2,0.2c2,0,5.9-0.6,7.1-0.6c0.8-0.2,1.7-0.2,1.9-0.3
		c0.3,0,0.8,0,1.2,0.2c0.6,0.2,1.1,0.3,1.5,0.3c0.9,0,1.7-0.3,3.4-0.3c2.2,0,3.6-0.5,6.3-0.8c1.7,0,2.3-0.6,3.3-0.6
		c1.5,0,5.9-2.3,7.6-4c0.9-0.8,2-2.5,2.3-3.6c0.3-0.8,0.9-1.6,0.9-2.5c0.6-1.7,1.4-4,1.7-6.4c0-0.5,0.2-1.4,0.2-2v-2v-0.9v-0.3
		c0-1.9,0.3-3.6,0.5-6.7c0-0.9,0.2-2,0.2-2.3c0.3-1.2,0.5-4,0.5-6.2v-2.8V114c0-0.8-0.5-4.5-0.5-5.1c0.2-2.6,0.2-6.8,0.2-9
		c0-1.7,0-2.8,0.2-3.3c0-0.5,0.2-0.6,0.2-1.4v-1.4c0.2-0.2,0.3-2.5,0.3-5.1c0-1.9-0.2-3.9-0.2-5.4c0-1.4,0-3.1,0.2-3.6l0.2-1.7v-0.9
		C1000.5,75.5,1000.4,72.6,1000.4,71.8z M971.7,100c0,2.5-0.3,2.2-0.3,5.1v3.4c0,0.5,0,1.2-0.2,1.9c0,1.4,0.2,3.6,0.2,5.7
		c0,4-0.5,8.4-2.5,10.4c-0.9,0.8-3.3,2.8-5.3,2.8h-0.5c-3.3-0.5-4.8-1.9-5.4-3.9c-0.6-2-0.6-4.7-0.8-7.6l0.5-12.9
		c-0.2-2.6-0.2-5.1-0.2-5.4c0.2-0.3,0.3-3.7,0.3-5.6V93c-0.2-0.8-0.2-2-0.2-3.3c0-1.7,0-3.6,0.2-4.5v-2.8v-1.6v-2.8
		c0-1.1,0-2.2,0.3-3c0.5-1.4,2.6-5.1,5.7-5.1h0.3c2.3,0,5,1.2,5.6,2.2c1.7,3.4,1.9,3.7,1.9,6.8v1.6c0,0.8,0,1.9,0.2,3.1
		c0,2,0,4.3,0.2,5c0,1.7-0.2,3.4-0.2,6.2C971.6,96.3,971.6,98,971.7,100z" />




    </symbol>

    <symbol id="arrowLongLeft" viewBox="0 0 169.1 17.8" fill-rule="evenodd" clip-rule="evenodd">
        <path class="st0" d="M1.5,8.5c0,0,0.1-0.1,0.2-0.1l7.9-6.9c0.2-0.2,0.5-0.2,0.7,0c0.2,0.2,0.2,0.5,0,0.7L3.1,8.4h163.8
	c0.3,0,0.5,0.2,0.5,0.5c0,0.3-0.2,0.5-0.5,0.5H3.1l7.1,6.2c0.2,0.2,0.2,0.5,0,0.7c-0.2,0.2-0.5,0.2-0.7,0L1.6,9.3
	c-0.1,0-0.1-0.1-0.2-0.1c0,0,0-0.1,0-0.1c0,0,0-0.1,0-0.1c0,0,0,0,0,0C1.3,8.8,1.4,8.7,1.5,8.5z" />
    </symbol>

    <symbol id="arrowLongRight" viewBox="0 0 169.1 17.8" fill-rule="evenodd" clip-rule="evenodd">
        <path class="st0" d="M167.3,9.2c0,0-0.1,0.1-0.2,0.1l-7.9,6.9c-0.2,0.2-0.5,0.2-0.7,0c-0.2-0.2-0.2-0.5,0-0.7l7.1-6.2L1.9,9.5
	C1.6,9.5,1.4,9.3,1.4,9c0-0.3,0.2-0.5,0.5-0.5l163.8-0.2l-7.1-6.2c-0.2-0.2-0.2-0.5,0-0.7c0.2-0.2,0.5-0.2,0.7,0l7.9,6.9
	c0.1,0,0.1,0.1,0.2,0.1c0,0,0,0.1,0,0.1c0,0,0,0.1,0,0.1c0,0,0,0,0,0C167.4,8.9,167.4,9,167.3,9.2z" />
    </symbol>

    <symbol id="arrowRightShort" viewBox="0 0 96.9 15.7">
        <path class="st0" d="M96.6,7.6c0,0-0.1-0.1-0.2-0.1l-7.9-6.9c-0.2-0.2-0.5-0.2-0.7,0c-0.2,0.2-0.2,0.5,0,0.7L95,7.4H1.2
	C1,7.4,0.7,7.7,0.7,7.9c0,0.3,0.2,0.5,0.5,0.5H95l-7.1,6.2c-0.2,0.2-0.2,0.5,0,0.7c0.2,0.2,0.5,0.2,0.7,0l7.9-6.9
	c0.1,0,0.1-0.1,0.2-0.1c0,0,0-0.1,0-0.1c0,0,0-0.1,0-0.1c0,0,0,0,0,0C96.8,7.9,96.8,7.7,96.6,7.6z" />
    </symbol>

    <symbol id="ysLogo" viewBox="0 0 247.7 50">
        <path d="M32.9,12.4c2.7,0,4.9-2.1,4.9-4.8c0-2.6-2.2-4.8-4.9-4.8C30.2,2.8,28,5,28,7.6C28,10.3,30.2,12.4,32.9,12.4z M48.6,34.4
			l-7.5-17.4l4.2-2.8l5.8,2.6l0.6,2.4l3.6-0.6l-2.7-3.1l-7.9-4.9L21,18.6l-5.2-2.5h8.8l0.6-1.1h-23l0.6,1.1h7.8l4,1.3l5.1,4.1
			l10.7-0.2l4.5,6.3l-6.5,7.8l1.1,8.1l-5.1-1.3l7.2,5.8l1.8-11.6l7.5-4.5l5.3,7l9.4-3.4l3.1,1.5l-2-3.5L48.6,34.4z M100.6,21.7
			c0-3.2-2.5-5.4-6.2-5.4c-6.5,0-10.1,5.5-10.1,10.8c0,4.5,2.6,7.2,7.6,7.2c1.9,0,4.3-0.2,6.5-1.2l-0.3-4.2c-1.4,0.7-3,1-4.7,1
			c-1.3,0-2.3-0.4-2.9-0.9c-0.4-0.4-0.5-0.8-0.6-1.2C96.6,28,100.6,26.2,100.6,21.7z M93.8,20.5c0.9,0,1.4,0.5,1.4,1.2v0
			c0,1.2-1.4,1.8-4.7,1.8C90.7,22.2,91.8,20.5,93.8,20.5z M122.9,16.3c-2.1,0-4.2,1-5.6,2.9c-0.2-1.3-1.4-2.9-3.9-2.9
			c-2.2,0-4.2,0.9-5.7,2.9h-0.1l0.2-2.5h-5c-0.3,1.7-0.5,3.6-1,5.8L99.7,34h5.8l1.5-7.9c0.6-3.3,2-5.2,3.3-5.2
			c0.8,0,1.1,0.6,1.1,1.6c0,0.6-0.1,1.3-0.3,2.1l-1.8,9.5h5.7l1.6-7.9c0.7-3.4,1.9-5.2,3.2-5.2c0.8,0,1.2,0.6,1.2,1.4
			c0,0.7-0.1,1.4-0.3,2.2l-1.8,9.5h5.8l1.9-10.1c0.2-1,0.4-2.5,0.4-3.2C127,18.1,125.7,16.3,122.9,16.3z M143.8,21.7
			c0-3.2-2.5-5.4-6.2-5.4c-6.5,0-10.1,5.5-10.1,10.8c0,4.5,2.6,7.2,7.6,7.2c1.9,0,4.3-0.2,6.5-1.2l-0.3-4.2c-1.4,0.7-3,1-4.7,1
			c-1.3,0-2.3-0.4-2.9-0.9c-0.4-0.4-0.5-0.8-0.6-1.2C139.7,28,143.8,26.2,143.8,21.7z M136.9,20.5c0.9,0,1.4,0.5,1.4,1.2v0
			c0,1.2-1.4,1.8-4.7,1.8C133.9,22.2,134.9,20.5,136.9,20.5z M162.7,16.6h-7l-3.5,4.9c-0.5,0.7-1,1.4-1.5,2.1h-0.1l2.8-13.9h-6.1
			L142.8,34h5.9l1-5.3l1.6-1.7l2.2,7h6.4l-4-10L162.7,16.6z M169.8,23.3c-1.2-0.6-1.8-1.1-1.8-1.6c0-0.8,0.8-1.2,2-1.2
			c1.4,0,2.5,0.4,3.3,0.7l1.3-4c-0.9-0.5-2.4-0.8-4.5-0.8c-4.7,0-8,2.5-8,6.2c0,2,1.5,3.5,3.5,4.6c1.5,0.8,2,1.3,2,1.9
			c0,0.7-0.5,1.2-1.7,1.2c-1.7,0-3.4-0.6-4.4-1.1l-1.4,4c1,0.7,3.1,1.2,5.2,1.2c4.9,0,8.3-2.2,8.3-6.2
			C173.6,25.9,171.9,24.5,169.8,23.3z M188.2,28.9c-1.4,0.7-3,1-4.7,1c-1.3,0-2.3-0.4-2.9-0.9c-0.4-0.4-0.5-0.8-0.6-1.2
			c6.6,0.2,10.7-1.6,10.7-6.1c0-3.2-2.5-5.4-6.2-5.4c-6.5,0-10.1,5.5-10.1,10.8c0,4.5,2.6,7.2,7.6,7.2c1.9,0,4.3-0.2,6.5-1.2
			L188.2,28.9z M183.7,20.5c0.9,0,1.4,0.5,1.4,1.2v0c0,1.2-1.4,1.8-4.7,1.8C180.7,22.2,181.8,20.5,183.7,20.5z M202.9,16.3
			c-1.9,0-3.8,0.9-5.1,2.6h-0.1l0.3-2.4h-5.2c-0.2,1.8-0.7,4.7-1,6.6l-3.5,17.8h5.9l1.4-7.2h0.1c0.6,0.4,1.7,0.6,2.8,0.6
			c5.9,0,9.7-5.7,9.7-11.7C208.1,19.2,206.6,16.3,202.9,16.3z M198.1,30c-0.8,0-1.3-0.2-1.7-0.6l0.8-4.2c0.4-2.5,1.7-4.2,3.2-4.2
			c1.3,0,1.6,1.1,1.6,2.3C202,26.1,200.4,30,198.1,30z M218.6,16.3c-6.5,0-10.1,5.5-10.1,10.8c0,4.5,2.6,7.2,7.6,7.2
			c1.9,0,4.3-0.2,6.5-1.2l-0.3-4.2c-1.4,0.7-3,1-4.7,1c-1.3,0-2.3-0.4-2.9-0.9c-0.4-0.4-0.5-0.8-0.6-1.2c6.6,0.2,10.7-1.6,10.7-6.1
			C224.7,18.4,222.2,16.3,218.6,16.3z M219.3,21.8c0,1.2-1.4,1.8-4.7,1.8c0.2-1.4,1.3-3,3.3-3C218.8,20.5,219.3,21.1,219.3,21.8
			L219.3,21.8z M232,28.1c0-0.4,0.1-1.2,0.2-1.7l1.1-5.5h3.5l0.8-4.3h-3.5l0.9-4.9l-6.1,1.7l-0.6,3.2h-2.1l-0.8,4.3h2.1l-1.3,6.4
			c-0.3,1.2-0.4,2.1-0.4,3c0,2.4,1.6,4,4.8,4c1.2,0,2.5-0.1,3.3-0.4l0.8-4.4c-0.5,0-1,0-1.4,0C232.4,29.5,232,29,232,28.1z
			 M235.4,34h5.9l3.4-17.4h-5.9L235.4,34z M242.3,14.8L242.3,14.8c1.5,0,2.9-1,2.9-2.7c0-1.4-0.9-2.3-2.4-2.3
			c-1.5,0-2.8,1.2-2.8,2.7C240,13.9,240.9,14.8,242.3,14.8z M82.7,9.7l-7.1,17h-0.1l0.3-17h-7.7l1.6,23.8c-0.3,1.3-1.1,1.9-2.4,1.9
			c-0.8,0-1.5,0-2.3-0.1l-1.2,5.5c1.2,0.3,2.6,0.4,4.1,0.4c3.1,0,5.4-0.6,6.9-1.8c1.2-1,2.5-3,4-6.1L90.1,9.7H82.7z" />
    </symbol>

    <symbol id="downArrow" viewBox="0 0 25 14">
        <path fill-rule="evenodd" opacity="0.6"
              d="M24.303,1.666 L13.441,13.525 C13.407,13.574 13.419,13.640 13.375,13.684 C13.179,13.881 12.919,13.966 12.662,13.954 C12.408,13.964 12.151,13.878 11.957,13.684 C11.914,13.640 11.925,13.576 11.892,13.527 L1.028,1.669 C0.659,1.297 0.659,0.698 1.028,0.327 C1.398,-0.042 1.997,-0.042 2.367,0.327 L12.665,11.570 L22.964,0.327 C23.334,-0.044 23.933,-0.044 24.303,0.327 C24.672,0.697 24.672,1.296 24.303,1.666 Z" />
    </symbol>

    <symbol id="arrowDownRight" viewBox="0 0 18 18">

        <path class="st0" d="M16.4,17C16.4,17,16.4,17,16.4,17L4.6,17c-0.5,0-0.8-0.4-0.8-0.8c0-0.5,0.4-0.8,0.8-0.8h9.8L0.6,1.7
	c-0.3-0.3-0.3-0.8,0-1.2c0.3-0.3,0.8-0.3,1.2,0l13.8,13.7V4.5c0-0.5,0.4-0.8,0.8-0.8c0.5,0,0.8,0.4,0.8,0.8v11.7
	C17.2,16.7,16.8,17,16.4,17C16.4,17,16.4,17,16.4,17z" />
    </symbol>

    <symbol id="ysRunningMan" viewBox="0 0 38 31">

        <path class="st0" d="M20.6,6.7c1.8,0,3.2-1.4,3.2-3.1c0-1.7-1.4-3.1-3.2-3.1c-1.8,0-3.2,1.4-3.2,3.1C17.4,5.3,18.9,6.7,20.6,6.7z
		 M36.2,20.2l-5.2,0.6L26,9.7l2.7-1.8l3.8,1.7l0.4,1.5l2.3-0.4l-1.8-2l-5.2-3.2l-15.5,5.1L9.4,9h5.8l0.4-0.7H0.5L0.9,9H6l2.6,0.8
		l3.3,2.7l7-0.1l3,4l-4.3,5l0.7,5.2l-3.3-0.8l4.7,3.7L21,22l4.9-2.9l3.5,4.5l6.1-2.2l2,1L36.2,20.2z" />

    </symbol>

    <symbol id="periodicTableLogo" viewBox="0 0 473 63">
        <path class="st0" d="M170.8,54.6c0-0.2-0.2-1.2-0.4-1.6c-0.1-0.2-0.1-0.4-0.1-0.5c-0.1-1.5-0.3-0.9-0.6-2.7
		c-0.1-0.3-0.5-2.2-0.6-2.4c0-0.2-0.1-0.6-0.1-0.8c-0.2-0.5-0.4-1.6-0.4-2c-0.1-0.2-0.3-1.3-0.4-1.7c0-0.1-0.1-0.2-0.1-0.4
		c0-0.5-0.2-0.8-0.3-1.4c-0.2-0.5-0.8-0.9-0.8-1.3v-0.1c0.1-0.2,1.1-0.4,1.4-0.5c0.5-0.2,1.1-0.9,1.2-1.5c0.2-0.5,0.7-1.1,0.8-1.7
		c0-0.4,0.2-0.7,0.2-1.1c0.1-0.2,0.1-0.5,0.1-0.5v-0.1v-0.2c-0.1-0.1-0.1-0.1-0.1-0.2c0-0.1,0-0.1,0.1-0.2c0.1-0.2,0.1-0.4,0.1-1.1
		c0-0.5-0.1-1.3-0.1-2.7c0-1.1,0-2-0.1-2.1v-0.4c0.1-0.1,0.1-0.7,0.1-1.3c0-1.1,0.1-1.2,0.1-1.9c0-0.3,0-0.7-0.1-1.2
		c-0.1-0.6-0.1-1-0.1-1.1v-0.5c-0.1-0.2-0.1-0.5-0.1-0.5s-0.1-0.2-0.1-0.3c-0.2-1.4-1.4-3.5-2.4-4.1c-0.5-0.5-1.1-0.9-1.8-1.2
		c-0.3-0.2-1.2-0.6-1.9-0.8c-0.2-0.1-0.7-0.1-1.1-0.1c-0.6,0-1.2,0.1-1.7,0.1h-3.3c-0.9,0.1-1.5,0.1-2,0.1c-1.1,0-1.1-0.1-2.7-0.1
		c-1,0-1.2,0.2-1.8,0.2c-0.2,0-0.5,0-0.8-0.1h-0.1c-0.1,0-0.4,0.1-0.9,0.1c-0.2,0.1-0.8,0.1-1.4,0.1c-0.6,0-1.4-0.1-1.8-0.1
		c-3.6,0-3.2,2.1-3.3,3.5c0,0.2-0.1,0.6-0.1,1.2c0,0.7,0.1,0.9,0.1,1.2c0,0.2-0.1,0.4-0.1,0.7c-0.1,0.6-0.1,1-0.1,1.4
		c0,1.1,0.1,1.8,0.1,3.1c-0.1,0.7-0.1,1.4-0.1,1.5c0,0.2,0.1,0.3,0.1,0.4c0,0.2-0.1,0.2-0.1,0.5c0,0.2-0.1,0.6-0.1,1
		c0,0.6,0.1,1.2,0.1,1.4c0.1,0.1,0.1,0.5,0.1,1.5c0,2.2-0.2,1.3-0.2,3.3c0,0.8-0.1,1.3-0.1,1.7c0,0.5,0.1,0.7,0.1,0.8
		c0,0.1,0.1,0.2,0.1,0.3c0,0.2-0.1,0.5-0.1,0.8c0.1,0.2,0.1,0.7,0.1,1.2c-0.1,2.2-0.1,3.3-0.1,4.6v3c-0.1,0.3-0.1,1.3-0.1,2.1v0.9
		v0.7c-0.1,0.4-0.2,1.8-0.2,2.8c0,0.5,0.1,1.5,0.1,1.7c0,0.3,0.1,0.9,0.1,1.2c0.1,0.6-0.1,1.1,0.5,1.4h0.1c0.1,0,0.3-0.1,0.5-0.1
		c0.1,0,0.1,0,0.1,0.1c0.2,0.1,0.3,0.1,0.4,0.1c0.1,0,0.6,0.1,0.7,0.1c0.1,0,0.2,0.1,0.3,0.1c0.4,0,0.7-0.2,1-0.2
		c0.2,0,0.3-0.1,0.4-0.1c0.1,0,0.4,0.1,0.6,0.1c0.2-0.1,0.4-0.1,0.5-0.1c0.2,0,0.3,0.1,0.7,0.1h0.4h1.1c0.6,0,1.5,0,1.6-0.1
		c0.2,0,0.6,0.1,1,0.1h0.2c0.5,0,1-0.2,1.1-0.6c0.2-0.7,0.4-2.8,0.4-3.6c0-0.6-0.1-1.3-0.1-2c0-0.2,0-0.5,0.1-0.7
		c0.1-1.1,0.1-1.7,0.1-2c0-0.7-0.1-0.8-0.1-3.2c0.1-1.2,0.1-2,0.1-2.1c0-0.1,0.1-0.3,0.1-0.5c0-0.3,0.1-0.6,0.2-0.7
		c0.1-0.1,0.3-0.2,0.5-0.2c0.4,0,0.8,0.3,1.1,0.4c0.3,0.4,0.9,2,0.9,2.8c0,0.7,0.7,2.4,0.7,3.3l0.2,0.7c0.1,0.4,0.5,1.8,0.5,2
		c0,0.2,0.2,1.1,0.2,1.4c0,0.4,0.2,1,0.3,1.4c0,0.3,0.1,0.7,0.1,0.8v0.4v0.1c0,0.2,0.1,0.8,0.2,0.9c0.5,0.6,1.4,1.2,2.4,1.2h0.3
		c0.2,0,0.5-0.1,0.8-0.1h1.6c0.5,0.1,0.8,0.1,1.1,0.1c0.2,0,0.4,0,0.5-0.1c0.1,0,0.5,0.1,0.8,0.1h0.2c0.8,0,1.1,0.2,1.8,0.2
		c0.4-0.1,0.5-0.1,0.7-0.2c0.2-0.1,1-0.5,1-0.5c0-0.1,0-0.7,0.1-0.8v-0.1c0-0.5-0.2-2.1-0.4-2.3C170.8,54.9,170.8,54.7,170.8,54.6z
		 M159.1,31.7c-0.1,0.8-0.7,1.6-2.1,1.6h-0.1c-0.1,0.1-0.2,0.1-0.4,0.1c-0.2,0-0.4,0-0.6-0.1c-0.1,0-0.1,0.1-0.2,0.1
		c-0.1,0-0.1-0.1-0.2-0.2c-0.2-0.2-0.2-0.3-0.2-2.1v-3.7c0-0.2,0.1-0.5,0.1-0.9c0.1-1.2,0.2-1.5,0.4-1.7c0,0,1,0.1,1.2,0.1
		c0.1,0,0.3-0.1,0.7-0.1c0.1,0,0.3,0,0.5,0.1c0.7,0.4,0.6,0.1,0.9,0.8c0.1,0.1,0.2,0.4,0.2,0.5c0.1,0.8,0.2,1.2,0.2,1.9
		C159.5,28.9,159.3,29.9,159.1,31.7z M185.5,49.7c0-0.8,0.1-2.4,0.1-2.6c0-0.4,0-0.9-0.1-4.8v-2.2c0-0.4,0.1-1.3,0.1-2.2v-0.9v-1
		v-0.8v-0.5c0-0.8-0.1-1.2-0.1-1.5v-0.2c0.1-0.5,0.1-2.4,0.1-3.4v-0.9c0-0.1,0.1-0.3,0.1-0.5h-10.9v0.1c0,0.4-0.1,1.1-0.1,1.3
		c0,0.1,0.1,3.1,0.1,3.7v0.4v0.3c0,0.2,0,0.5,0.1,1.2v1.1c0,0.1-0.1,0.3-0.1,0.4c0,0.1,0.1,0.2,0.1,0.3v2.5c0,0.4,0.1,1.1,0.1,1.8
		c0,0.7-0.1,1.4-0.1,1.7v0.6c0,1.5,0.2,4.4,0.2,5.3v0.4v0.2v0.2c0,0.4-0.1,1-0.1,1.4c0,0.2,0,0.4,0.1,0.4c0,0.1,0,0.2-0.1,0.5
		c-0.1,0.1-0.1,0.2-0.1,0.2c0,0.2,0.1,0.3,0.1,0.4v0.4c-0.1,0.2-0.1,0.5-0.1,0.8c0,0.3,0.1,1,0.1,1.5c0,0.8-0.1,1.7-0.1,2.2
		c0,0.3,0,0.5,0.1,0.5c0.1,0.2,0.8,0.5,1.1,0.6c0.6,0,0.8,0.2,1.5,0.2c1.6,0,1.1-0.1,2.7-0.1c1.6,0,3.7-0.1,4.5-0.2
		c0.4-0.1,0.6-0.2,0.7-0.5c0-1.5-0.2-7-0.2-7.7V49.7z M184.4,15.6c-0.4,0-0.8,0.1-1.3,0.1c-0.4,0-0.7-0.1-1.1-0.1h-0.5
		c-0.5,0-1.2,0.1-1.4,0.1h-0.1c-0.2,0-0.5-0.1-0.8-0.1c-0.5,0-0.5,0.2-0.8,0.2c-0.1,0-0.1-0.1-0.2-0.1c-0.1,0-0.2-0.1-0.2-0.1
		c-0.2,0-0.5,0.1-0.7,0.1c-0.2,0.1-0.7,0.1-0.8,0.3c-0.6,0-1.2,1-1.3,1.6c-0.1,0.9-0.2,3.1-0.2,4.8c0,0.4-0.1,0.7-0.1,0.8
		c-0.1,0.1-0.1,0.4-0.1,0.8v1.2h10.8c0-0.6,0-0.9,0.1-1.6v-1.1c0-0.2,0.1-1.5,0.1-2v-1.5c-0.1-0.7,0-0.6,0-0.8v-0.3
		c0-0.8-0.1-1.3-0.2-1.7C185.4,15.8,185,15.6,184.4,15.6z M115.9,26.4c0-0.3-0.1-1.1-0.1-1.8c-0.1-2.4-0.4-5.1-1.5-6.7
		c-0.4-0.5-0.9-0.9-1.4-1.3c-0.7-0.6-1.8-1-3.2-1c-0.2-0.1-0.4-0.1-0.5-0.1c-0.1,0-0.4-0.1-0.7-0.1c-0.4-0.1-0.9-0.1-1.5-0.1h-1.1
		c-0.4,0-1,0-1.2-0.1c-0.1,0-0.3-0.1-0.5-0.1c-0.9,0-2.5,0.2-3.3,0.2c-0.1,0-0.4,0.1-0.7,0.1c-0.2,0.1-0.4,0.1-0.6,0.1
		c-0.5,0-1.1-0.2-1.7-0.2c-0.2,0-0.7,0-0.8-0.1c-0.5,0-0.7,0.2-1.1,0.2c-0.1,0-0.2-0.1-0.4-0.1c-0.4-0.1-0.7-0.1-0.9-0.1
		c-0.6,0-1.1,0.1-1.8,0.1c-0.5,0-0.8,0.1-1,0.1c-0.1,0-0.4,0.1-0.5,0.1c-0.8,0-2,0.1-2,0.9c0,0.7-0.1,2.2-0.1,2.8
		c0.1,0.9,0.1,1.8,0.1,2.4c0,0.2,0,0.5-0.1,0.6V24c0,0.4,0.1,0.8,0.1,1.2c0,0.7-0.1,1.2-0.1,1.8c0.1,1.7,0.2,2.7,0.2,4.5
		c0,1.5-0.1,3.1-0.2,5c-0.1,0.1-0.1,0.2-0.1,0.2c0,0.2,0.1,0.4,0.1,0.7v0.2c0,0.2-0.1,0.4-0.1,0.5v0.2c0,0.2,0,0.5,0.1,0.7
		c0.1,0.5,0.1,1.2,0.1,2.1c0,1.4-0.1,3-0.1,4.4c0,0.6,0,1.2,0.1,1.7c0,0.9,0,1.1-0.1,1.4c0,0.1-0.1,0.2-0.1,0.3
		c0,0.1,0.1,0.2,0.1,0.3c0,0.1,0.1,0.1,0.1,0.2c0,0.2-0.1,0.3-0.1,0.4c0,0.1,0.1,0.1,0.1,0.2c0,0.1,0.1,0.2,0.1,0.4
		c0,0.1-0.1,0.4-0.1,0.6v0.9c0,0.6-0.1,0.9-0.1,1.4c0,0.2,0,0.3,0.1,0.5c0,0.2,0.1,0.7,0.1,1.1c0,1.2,0.2,0.7,0.2,1.7v0.5
		c0.2,0.5,0.5,1.2,1,1.4c1.2,0.5,2.7,0.6,4.6,0.6c0.1-0.1,0.3-0.1,0.4-0.1c0.1,0,0.3,0,0.5-0.1h0.1c0.2,0,0.5,0.1,0.7,0.1
		c0.3-0.1,0.7-0.1,0.7-0.1c0.1-0.1,0.6-0.1,0.9-0.1h0.2h0.1c0.2,0,0.9-0.1,1.1-0.2c0.5-0.4,0.8-2,0.8-2.9c0-0.2,0-0.4,0.1-0.5
		c0-0.1,0.1-0.4,0.1-0.6v-0.5c0.1-0.1,0.1-0.5,0.1-1.1c0-0.5,0.1-0.5,0.1-0.6c0.1-0.1,0.1-0.7,0.1-1.4v-1.1c0-1.2-0.1-1.6-0.1-2.8
		v-1.1v-0.9c0-0.8,0.1-1.1,1-1.1c0.2,0.1,1.2,0.1,2.1,0.1h0.9h1.2c0.4,0,0.5,0,0.7-0.1c0.1,0,0.5-0.1,1-0.1c1.2-0.1,0.9-0.1,1.6-0.4
		c0.3-0.1,0.9-0.4,1.6-0.7c0.1-0.1,0.4-0.3,0.5-0.4c0.1-0.1,0.4-0.4,0.6-0.4c0.5-0.2,0.9-0.8,1.3-1.3c0.6-0.8,0.9-1.4,1.3-2.4
		c0.4-0.8,0.6-1.3,0.6-2.2c0-0.4,0.1-0.8,0.1-0.9c0-0.3,0.1-1.4,0.2-2.2c0.1-0.9,0.1-1.4,0.1-1.8c0-1-0.1-0.7-0.2-3.3
		C116,27.3,115.9,26.7,115.9,26.4z M105.6,30.9c0,0.7-0.1,0.7-0.3,1.4c-0.2,0.6-0.4,0.9-0.9,1.2c-0.7,0.4-1.4,0.5-2,0.5h-0.3
		c-0.1,0-0.2-0.1-0.3-0.1c-0.4-0.1-0.5-0.2-0.6-0.5c0-0.2-0.1-1.4-0.1-3.1v-1v-2.2v-0.4v-0.5c0.1-0.1,0.3-0.4,0.4-0.4
		c0.1-0.1,0.2-0.1,0.7-0.1c0.8,0,1.1,0.1,1.5,0.3c1,0.4,1.2,1,1.5,2.1c0.1,0.4,0.3,1.2,0.3,1.9V30.9z M297.4,7.7
		c0.7,0.3,1-0.7,1.1-1.3c0.1-0.9-0.9-1.1-1.5-0.7c-0.7,0.5-1.5,0.5-1.1,1.3C296.2,7.5,296.7,7.3,297.4,7.7z M130.6,27.6
		c0.1-0.4,0.1-0.9,0.1-1.2v-0.1c0.1-0.7,0.1-0.8,0.2-0.9c0.1,0,0.4-0.1,0.6-0.1c0.4,0,3.1-0.2,4-0.2c0.3,0,0.8-0.2,1.1-0.2
		c0.1,0,0.2,0,0.3,0.1h0.5h0.1c0.1,0,0.2,0.1,0.4,0.1h0.1c1.7-0.2,2-0.9,2-1.7c0-0.3-0.1-0.7-0.1-0.9v-0.1v-3v-0.1
		c0-1.1-0.1-2.2-0.2-2.9c-0.2-0.4-0.3-0.5-0.8-0.7c-0.4-0.1-0.4-0.1-2.2-0.2c-0.9-0.1-2-0.1-2.4-0.1H134h-2.1
		c-0.1,0-0.8,0.1-1.4,0.1c-0.7,0-1.3-0.1-1.4-0.1c-0.1,0.1-0.2,0.1-0.4,0.1c-0.1,0-0.2-0.1-0.2-0.1h-0.1c-0.4,0-0.9,0.1-1.2,0.1H127
		h-0.9h-0.1c-0.4,0-1,0-1.5-0.1h-1.3c-0.1,0-0.3,0-0.5-0.1c-0.1,0-0.3,0.1-0.5,0.1h-1c-0.6,0-1.1,0.1-1.4,0.4
		c-0.3,0.3-0.3,0.9-0.4,1.3c-0.2,0.8-0.2,0.9-0.2,2.2c0.1,0.2,0.1,0.4,0.1,0.5v0.6c0,0.6,0,3.4,0.1,5.6v0.2c0,1-0.1,1.8-0.1,2.2
		c-0.1,0.3-0.1,0.8-0.1,1.7v0.7l0.2,1.8c0,1.9,0,2.4,0.1,2.7c0,0.1-0.1,0.4-0.1,0.5c0.1,0.2,0.1,0.4,0.1,0.4v0.1
		c0,0.1-0.1,0.5-0.1,0.9c0,1.3,0.1,2.2,0.1,2.9v0.2c0,1.2-0.1,1.5-0.1,1.6c0.1,0.1,0.1,0.5,0.1,1.1v1.2c0.1,0.1,0.1,0.2,0.1,0.2
		c0,0.1,0,0.2-0.1,0.2V45v0.5c-0.1,0.3-0.1,0.7-0.1,1.1c0,0.7,0.1,1.4,0.1,2.3l-0.1,2.2c0,1.9,0.1,4.1,0.4,5.5
		c0.1,0.4,0.2,0.8,0.5,1c0.5,0.5,0.7,0.9,1.9,0.9c1.2,0.2,1.8,0.2,2.6,0.2h0.5h1.5c2.3,0,3.9,0.1,6,0.1h1.7c0.3,0,1.5-0.1,1.7-0.1
		c0.1-0.1,0.2-0.1,0.4-0.1c0.4,0,0.8,0.1,1.1,0.1c0.2,0,0.5,0,0.7-0.1c0.2,0,0.9-0.5,1.1-0.8c0.3-0.3,0.4-0.8,0.5-1.4
		c0-0.5,0.1-2.2,0.1-3.4c0-0.5-0.1-0.8-0.1-1c-0.1-0.1-0.1-0.5-0.1-0.9c-0.1-0.9-0.1-0.9-0.4-1.4c-0.7-0.4-1-0.5-1.8-0.5h-0.1
		c-0.6-0.1-1.2-0.1-1.8-0.1h-0.1c-0.5,0-0.9,0-1.1,0.1c-0.1,0.1-0.2,0.1-0.4,0.1h-0.7c-0.5,0-0.7,0-1.1-0.1c-0.1,0-0.6,0.1-0.8,0.1
		h-1c-0.1-0.3-0.1-0.4-0.1-0.5v-0.8v-0.7c-0.1-0.2-0.1-0.3-0.1-0.5c0-0.4,0.1-0.8,0.1-1.5v-0.7c0-0.8-0.1-1.4-0.1-1.8V42v-0.3
		c0.1-0.4,2.6-0.5,3.5-0.5c0.4-0.1,0.8-0.1,0.8-0.1h0.4h0.2h0.1h0.1c0.3,0,1.5,0,1.9,0.1c0.2,0,0.3,0.1,0.4,0.1
		c0.1,0,0.2-0.1,0.2-0.1c0.2,0,0.6-0.4,0.7-0.7c0.1-0.3,0.2-1.6,0.2-2.9v-0.1c0-0.9-0.1-1.8-0.1-2.4c0-0.4-0.1-0.9-0.1-1.1
		c-0.1-0.2-0.1-0.5-0.1-0.6c-0.1-0.2-0.5-0.4-0.7-0.4c-0.1,0-0.2-0.1-0.4-0.1c-0.2-0.1-0.5-0.1-0.8-0.1h-0.6c0,0-0.3,0-0.7,0.1
		c-0.6,0.1-1,0.1-1.5,0.1h-0.1h-1.1c-0.5,0-1.2-0.1-1.3-0.1c-0.1,0-0.3,0.1-0.5,0.1c-0.1,0-0.2,0-0.3-0.1c-0.1-0.2-0.1-0.7-0.1-1
		v-0.5v-0.6c0-0.6-0.1-1.3-0.1-2.1v-0.1C130.6,28.2,130.6,27.9,130.6,27.6z M278,13.9c0.8,0.4,1.2-0.9,1.3-1.5
		c0.1-1-1.1-1.3-1.8-0.8c-0.9,0.7-1.8,0.6-1.3,1.5C276.5,13.7,277.1,13.5,278,13.9z M39.5,20.8c3.2,0,5.8-2.5,5.8-5.7
		c0-3.1-2.6-5.7-5.8-5.7c-3.2,0-5.8,2.5-5.8,5.7C33.8,18.3,36.4,20.8,39.5,20.8z M215.4,15.3c-0.4,0-0.8,0-1-0.1h-0.8
		c-0.1,0-0.2,0.1-0.4,0.1c-0.3,0-0.4-0.1-0.7-0.1c-0.1,0-0.2,0.1-0.3,0.1c-0.4,0.1-0.6,0.2-0.8,0.2c-0.2,0-0.4-0.1-0.7-0.1
		c-0.4-0.1-0.6-0.1-0.8-0.1c-0.2,0-0.3,0-0.4,0.1h-0.1c-0.1,0-0.1-0.1-0.2-0.1h-0.6c-0.2,0-0.5-0.1-0.8-0.1c-0.2,0-0.3,0-0.4,0.1
		c-0.6,0.4-0.9,1.5-1.2,2.3c-0.1,0.2-1.2,3-1.3,3.4c-0.1,0.2-0.4,0.9-0.5,1.1c-0.2,0.5-0.3,0.9-0.5,1.6c-0.1,0.1-0.8,2.5-0.9,2.6
		c-0.1-0.1-0.8-2.6-0.8-2.7c-0.2-0.7-0.2-1-0.5-1.5c-0.1-0.2-0.4-0.9-0.5-1.1c-0.1-0.4-1.2-3.3-1.4-3.5c-0.4-0.8-0.4-1.7-1-2
		c-0.2-0.1-0.4-0.1-0.7-0.1c-0.4,0-0.8,0.1-0.9,0.1c-0.1,0-0.4-0.2-0.4-0.2h-0.3h-0.2c-0.1,0-0.2-0.1-0.4-0.1
		c-0.2,0-0.4,0.1-0.8,0.1c-0.5,0.1-0.7,0.1-0.9,0.1c-0.2,0-0.4-0.1-0.6-0.1c-0.1,0-0.2-0.1-0.3-0.1c-0.3,0-0.4,0.1-0.7,0.1
		c-0.1,0-0.2-0.1-0.4-0.1h-0.8h-0.2h-0.7h-0.2H190h-0.3c-0.5,0-0.8,0.1-0.9,0.4c-0.1,0.1-0.1,0.2-0.1,0.4V16c0,0.2,0.1,0.6,0.2,0.9
		c0.3,0.9,1,2.2,1.5,3.5l1,2.5c0.7,2,3.1,7.7,3.4,8.3c1,1.8,1.7,3.5,2.4,5.2h0.2v1.1c0,1.8,0.2,3.1,0.2,5.8v0.9
		c0,0.2-0.1,0.4-0.1,0.8v0.8c-0.1,0.5-0.2,1.2-0.2,1.7v0.4c0,0.1,0.1,0.2,0.1,0.2c0,0.3-0.1,0.6-0.1,0.8c0,0.1,0.1,0.2,0.1,0.3
		c0.1,0.2,0.1,0.5,0.1,0.8c0,0.8-0.1,1.8-0.1,2.2c0,0.3,0.1,0.8,0.1,1.2v3.1c0,0.3,0.1,0.6,0.1,0.8c0.1,0.1,0.1,0.4,0.1,0.4v0.1
		c0,0.2,0.5,0.7,1,0.8c0.2,0.1,0.5,0.1,0.9,0.1c0.5,0,2.1,0.1,2.6,0.2c0.7,0,1.3-0.1,2-0.1c0.2-0.1,0.3-0.1,0.3-0.1h0.1h0.8h0.2
		c1.5-0.1,2.8-0.5,3-1.7c0.1-0.8,0.1-1.6,0.1-5.1v-3.9c0.1-0.1,0.1-0.2,0.1-0.3c0-0.2,0-0.3-0.1-0.5c0-0.2,0-0.5-0.1-0.7
		c0-0.1,0.1-0.4,0.1-0.7c0.1-0.2,0.1-0.7,0.1-1c0-0.8-0.1-1.4-0.1-1.7v-0.1c0.1-0.2,0.1-0.8,0.1-2.2c0-0.5,0.1-1.1,0.1-1.4
		c0-0.1,0.1-0.3,0.1-0.4c0-0.1-0.1-0.2-0.1-0.2v-1.3v-1.2h0.1c0.7-1.7,1.4-3.5,2.4-5.3c0.2-0.5,2.7-6.3,3.4-8.3l0.9-2.5
		c0.5-1.2,1.1-2.2,1.4-3.1c0.2-0.4,0.4-0.9,0.4-1.2c0-0.2,0-0.3-0.1-0.4C217,15.4,216.3,15.4,215.4,15.3z M469.4,25.8
		c0-1.1-1.1-4.9-1.6-5.9c0-0.1-0.1-0.2-0.2-0.5c-0.2-0.5-0.5-0.8-0.8-1.2c-0.3-0.4-1.2-1.4-1.7-1.7c-0.4-0.2-1.2-0.4-1.6-0.7
		c-0.7-0.2-1.2-0.5-1.8-0.7c-0.1,0-0.4-0.1-0.5-0.1h-0.4h-0.2c-0.2,0-0.4-0.1-0.5-0.1c-0.2-0.1-0.6-0.1-1.2-0.1h-0.9l-3,0.1
		c-0.1,0-0.2,0-0.4,0.1c-0.1,0-0.3,0.1-0.5,0.1l-1-0.1c-1.8,0.1-2.5,0.2-3.9,0.4c-0.5,0-0.6,0-0.8,0.1c-0.1,0.1-0.3,0.2-0.4,0.2
		c-0.1,0-0.2,0.1-0.3,0.1l-0.6,0.2c-0.9,0.4-1.8,0.8-2.3,1.7c-0.4,0.5-0.4,0.7-0.5,1.1c-0.4,1.2-1.2,3-1.2,4.7
		c0,0.2-0.1,0.4-0.1,0.6c-0.1,0.2-0.1,0.4-0.1,0.5c0,0.5-0.2,0.7-0.2,1.2c0,0.1,0.1,0.2,0.1,0.4c0,0.1-0.1,0.2-0.1,0.5
		c-0.1,0.5-0.2,0.7-0.2,0.9c0,0.1,0.1,0.2,0.1,0.5c0.1,0.3,0.1,0.5,0.1,0.7c0,0.6-0.1,1-0.1,2c0,0.8,0,1.2-0.1,1.5
		c-0.1,2.1-0.1,6.5-0.1,8.4v0.4c0,1.8,0.2,4.6,0.2,6v0.9c0,1.8,0.1,2.5,0.1,4.2c0,0.5,0.1,1,0.3,1.4c0.2,0.9,0.7,1.4,1,2.1
		c0.2,0.4,0.7,1.2,1,1.5c0.4,0.4,1,0.6,1.4,1c0.1,0.2,0.8,0.5,1.1,0.5c0.1,0,0.2,0.1,0.4,0.1c0.1,0.1,0.2,0.1,0.3,0.1
		c0.1,0.1,0.3,0.1,0.4,0.1c0.1,0.1,0.4,0.1,0.5,0.1c0.2,0,1.1,0.2,1.4,0.2c0.1,0,0.2-0.1,0.3-0.1c0.2,0,0.4,0.1,0.8,0.1h0.8
		c0.5,0,0.9,0.2,1.2,0.2h0.1h0.3c0.1,0.1,0.2,0.1,0.5,0.1c0.8,0,2.3-0.2,2.7-0.2c0.3-0.1,0.7-0.1,0.7-0.1c0.1,0,0.3,0,0.5,0.1
		c0.2,0.1,0.4,0.1,0.6,0.1c0.4,0,0.7-0.1,1.3-0.1c0.8,0,1.4-0.2,2.4-0.3c0.7,0,0.9-0.2,1.2-0.2c0.6,0,2.3-0.9,2.9-1.5
		c0.4-0.3,0.8-1,0.9-1.4c0.1-0.3,0.4-0.6,0.4-1c0.2-0.7,0.5-1.5,0.7-2.4c0-0.2,0.1-0.5,0.1-0.8v-0.8v-0.4v-0.1
		c0-0.7,0.1-1.4,0.2-2.6c0-0.4,0.1-0.8,0.1-0.9c0.1-0.5,0.2-1.5,0.2-2.4v-1.1V42c0-0.3-0.2-1.7-0.2-2c0.1-1,0.1-2.6,0.1-3.4
		c0-0.7,0-1.1,0.1-1.2c0-0.2,0.1-0.2,0.1-0.5v-0.5c0.1-0.1,0.1-1,0.1-2c0-0.7-0.1-1.5-0.1-2.1c0-0.5,0-1.2,0.1-1.4l0.1-0.7v-0.4
		C469.5,27.3,469.4,26.1,469.4,25.8z M458.5,36.7c0,1-0.1,0.8-0.1,2v1.3c0,0.2,0,0.5-0.1,0.7c0,0.5,0.1,1.4,0.1,2.2
		c0,1.5-0.2,3.2-0.9,4c-0.4,0.3-1.2,1.1-2,1.1h-0.2c-1.2-0.2-1.8-0.7-2.1-1.5c-0.2-0.8-0.2-1.8-0.3-2.9l0.2-4.9
		c-0.1-1-0.1-2-0.1-2.1c0.1-0.1,0.1-1.4,0.1-2.1V34c-0.1-0.3-0.1-0.8-0.1-1.2c0-0.7,0-1.4,0.1-1.7v-1.1v-0.6v-1.1
		c0-0.4,0-0.8,0.1-1.1c0.2-0.5,1-2,2.2-2h0.1c0.9,0,1.9,0.5,2.1,0.8c0.7,1.3,0.7,1.4,0.7,2.6v0.6c0,0.3,0,0.7,0.1,1.2
		c0,0.8,0,1.7,0.1,1.9c0,0.7-0.1,1.3-0.1,2.4C458.4,35.2,458.4,35.9,458.5,36.7z M358.6,24.8c0.1-0.2,0.2-0.9,0.2-2
		c0-0.4-0.1-0.7-0.1-1.1c-0.1-0.9-0.1-1.8-0.1-2.7v-1.4c0-0.9-0.7-1.8-1.5-1.8h-0.2c-0.2,0-0.5-0.1-0.5-0.1
		c-0.1-0.1-0.4-0.1-0.7-0.1h-0.8c-0.1-0.1-0.2-0.1-0.3-0.1c-0.4,0-0.7,0.2-1,0.2c-0.1,0-0.2,0-0.3-0.1c-0.1-0.1-0.7-0.1-1.2-0.1
		c-0.4,0-0.9,0.1-1.3,0.1c-0.3,0-1.1,0.1-1.7,0.1c-0.6-0.1-1.3-0.1-1.5-0.1c-0.2,0-0.4,0.1-0.8,0.1c-0.3,0-0.8-0.1-1.6-0.1
		c-0.4,0-0.7,0-0.9,0.1v-0.1c-0.4,0-0.9-0.1-1.4-0.1c-0.6,0-1.2,0.1-1.3,0.1c-0.1,0.1-0.1,0.1-0.2,0.1c-0.1,0-0.2,0-0.4-0.1
		c-0.3-0.1-1.1-0.1-1.6-0.1c-0.2,0-0.4,0-0.5,0.1h-0.2c-0.3,0.1-0.6,0.1-0.7,0.1c-0.1,0-0.4,0.1-0.5,0.1H337c-0.3,0-0.4,0.1-0.7,0.2
		c-0.2,0.2-0.5,0.6-0.5,0.7c0,0.2-0.2,0.5-0.3,0.8c-0.1,0.3-0.1,0.7-0.1,1.1c0,0.6,0.1,1.3,0.1,2c0,0.4,0,0.7-0.1,1
		c0,0.4-0.1,0.8-0.1,1.1c0,1.1,0.1,1.8,0.2,2c0.3,0.6,1.1,0.9,2,0.9c0.2,0,0.4,0.1,0.5,0.1c0.2,0.1,0.1,0.1,1.1,0.1
		c0.3,0,0.6,0,0.6,0.1c0.1,0,0.2-0.1,0.4-0.1c0.2-0.1,0.4-0.1,0.6-0.1h0.2h0.4h0.1c0.1,0,0.1,0.1,0.1,0.2c0.1,0.3,0.1,0.7,0.1,0.8
		v0.1v0.5c-0.1,0.4-0.1,0.9-0.1,1.4v5.5c0,0.1,0,0.8-0.1,1.5v1c0,1.7,0.1,2,0.1,3.4c0,4.2-0.2,7.2-0.2,10.6c0,1.1,0,2.3,0.1,3.6v1.5
		c0.2,1.7,0.1,2.9,2.3,3.1c0.2,0,0.5,0.1,0.7,0.1h0.1c0.2,0,0.4-0.1,0.5-0.1c0.5,0,0.8,0.2,1.2,0.2c0.1,0,0.3,0,0.5-0.1
		c0.1,0,0.2-0.1,0.4-0.1c0.2,0,0.5-0.1,0.8-0.1c0.1,0,0.2,0,0.4,0.1h0.2c0.4,0,1.2-0.1,1.5-0.1c0.2,0,0.6,0,0.9-0.1h0.6
		c0.1-0.1,0.4-0.4,0.6-0.4c0.4-0.1,0.4-0.3,0.4-1.1v-1.1v-2.1v-1.4c-0.1-4.2-0.1-6.6-0.2-10v-2.8c0.1-1.2,0.1-2.5,0.1-2.9
		c0.1-0.4,0.1-0.9,0.1-1.1c0-0.2,0.1-0.4,0.1-0.5c0-0.1-0.1-1.1-0.1-2.4c0-2,0.1-4,0.1-5.8c0-0.7-0.2-1.1-0.2-1.3
		c0-0.2,0.1-0.2,0.4-0.2h0.3h0.4h0.2c0.1,0,0.1,0,0.1,0.1v0.1c0.1,0.1,0.3,0.1,0.4,0.1c0-0.1,0.3-0.1,0.6-0.1c1,0,1.5-0.1,1.7-0.1
		c0.1,0,0.3-0.1,0.5-0.1C357.6,25.7,358.3,25.4,358.6,24.8z M384.9,46.5c-0.1-0.4-0.2-0.7-0.2-1c-0.1-0.7-0.3-1.1-0.3-1.7
		c-0.1-0.8-0.2-1.1-0.3-1.8c-0.1-0.5-0.2-0.8-0.2-1.3c0-0.4-0.4-1.2-0.4-1.6c0-0.4-0.4-1-0.5-1.7c-0.2-1-0.3-1.5-0.5-2.6
		c-0.2-1.2-0.5-1.8-0.6-3.1c0-1-0.2-0.8-0.3-1.4c-0.8-3.4-1.2-6.1-2-8.8c-0.1-0.3-0.2-0.2-0.2-0.8c0-0.3-0.1-0.5-0.1-0.7
		c-0.1-0.2-0.1-0.3-0.1-0.4v-0.1c0-0.2,0-0.4-0.2-0.5c-0.1-0.2-0.2-0.1-0.2-0.4v-0.2c0-0.7-0.3-1.5-0.6-1.8c-0.1-0.1,0-1-0.7-1.2
		c-0.1-0.1-1.4-0.1-1.5-0.2h-0.1c-0.2,0-0.4,0.1-0.6,0.1h-0.1c-0.1,0-0.2-0.1-0.4-0.1c-0.2,0-0.4,0.1-0.5,0.1c-0.1,0-4.6,0-4.7,0.1
		h-0.6c-0.1-0.1-0.2-0.1-0.3-0.1c-0.2,0-0.4-0.1-0.5-0.1c-0.1,0-0.2,0.1-0.4,0.1h-0.1c-0.2,0-0.4-0.1-0.6-0.1h-0.1
		c-0.1,0.1-1.4,0.1-1.5,0.2c-0.7,0.3-0.5,1.1-0.7,1.2c-0.3,0.3-0.6,1.2-0.6,1.8v0.2c0,0.2-0.1,0.1-0.2,0.4c-0.2,0.2-0.2,0.4-0.2,0.5
		v0.1c0,0.1,0,0.2-0.1,0.4c0,0.1-0.1,0.4-0.1,0.7c0,0.6-0.1,0.5-0.2,0.8c-0.7,2.7-1.2,5.3-2,8.8c-0.1,0.5-0.3,0.4-0.3,1.4
		c-0.1,1.2-0.4,1.9-0.6,3.1c-0.2,1-0.2,1.6-0.5,2.6c-0.1,0.7-0.5,1.3-0.5,1.7c0,0.4-0.4,1.2-0.4,1.6c0,0.5-0.2,0.8-0.2,1.3
		c-0.1,0.7-0.2,1-0.3,1.8c0,0.6-0.2,1-0.3,1.7c0,0.3-0.2,0.6-0.2,1c-0.5,3-1.1,6.5-1.8,9.3c-0.1,0.4-0.1,1-0.1,1.4l-0.2,1.4v0.2
		c0,0.5,0.5,0.2,1.2,0.4c0.2,0,0.7,0,0.9,0.1c0.5,0,0.8,0.1,0.9,0.1c0.3,0,0.3-0.1,0.4-0.1c0.2-0.1,0.4,0,0.5,0
		c0.2,0,0.4,0.1,0.7,0.1c0.1,0,0.3-0.1,0.4-0.1c0.2-0.1,0.8-0.1,1.2-0.1h0.4c0.2,0,0.5-0.1,0.8-0.1h0.2c0.4,0,0.6,0.1,1,0.1
		c1.1-0.1,1.5-0.7,1.7-1.5c0-0.2,0.1-0.4,0.1-0.5l0.9-5.6v-0.1c0-0.3,0.2-0.4,0.7-0.5c0.7,0,1.9,0,2.1,0.1c0.2,0.1,0.5,0,0.8,0
		c0.2,0,0.7,0.1,0.9,0c0.2-0.1,1.4-0.1,2.1-0.1c0.5,0.1,0.7,0.2,0.7,0.5v0.1c0,0.7,0.9,5.2,0.9,5.7c0,0.1,0.1,0.3,0.1,0.5
		c0.1,0.5,0,1.1,0.4,1.4c0.2,0.2,0.9,0.1,1.4,0.1c0.4,0,0.6-0.2,0.9-0.2h0.2c0.3,0,0.6,0.1,0.8,0.1h0.4c0.4,0,1,0,1.2,0.1
		c0.1,0,0.3,0.1,0.4,0.1c0.2,0,0.5-0.1,0.7-0.1c0.2,0,0.4,0.1,0.5,0.1c0.1,0.1,0.1,0.1,0.4,0.1c0.2,0,0.5-0.1,0.9-0.1
		c0.3-0.1,0.8-0.1,0.9-0.1c0.7-0.1,1-0.4,1-1.1v-0.2v-0.8c0-0.4-0.1-1-0.1-1.4C386.1,53,385.4,49.5,384.9,46.5z M373.2,40.9h-0.3
		h-2.3c-0.5,0-0.9-0.1-0.9-0.7c0-0.2,0-0.5,0.1-0.9c0,0,0.3-1.4,0.5-2.3c0.2-1,0.3-1.7,0.4-1.9c0.1-0.1,0.2-0.6,0.2-0.9
		c0.1-0.2,0.4-1.4,0.5-1.7c0.2-0.5,0.4-2.1,0.5-2.8c0.2,0.6,0.5,2.3,0.7,2.8c0.1,0.3,0.4,1.4,0.5,1.7c0.1,0.3,0.1,0.8,0.2,0.9
		c0.1,0.2,0.2,0.9,0.4,1.9c0.2,0.9,0.5,2.3,0.5,2.3c0.1,0.4,0.1,0.7,0.1,0.9C374.1,40.8,373.8,40.9,373.2,40.9z M438.5,53.8
		c0.1-0.1,0.1-1.1,0.1-1.5c-0.1-1.6-0.1-2.5-0.5-2.8c-0.1-0.2-0.2-0.2-0.4-0.2c-0.1,0-0.1,0.1-0.2,0.1c-0.2-0.1-0.3-0.1-0.5-0.1
		c-0.1,0-0.2,0-0.4,0.1c-0.2-0.1-0.3-0.1-0.5-0.1c-0.1,0-0.4,0-0.5,0.1c-0.4,0-0.9-0.1-1.6-0.1c-0.8-0.2-0.9-0.3-0.9-0.4
		c-0.2-0.3-0.2-0.5-0.2-5.2c-0.1-1.4-0.1-2.6-0.1-3.4c-0.1-0.8-0.1-1.7-0.1-2c0.1-0.5,0.1-0.7,0.1-1.8v-1.4c0.1-1,0.1-1.4,0.1-4.2
		v-2c0-1.8,0.1-2.6,0.1-4.1v-1.7c0.1-0.3,0.1-0.7,0.1-0.8c0.1-0.2,0.1-0.7,0.1-1.1c0-0.5,0.1-0.9,0.1-1.4c0-0.5-0.1-1.1-0.1-2
		c0-1.4-0.1-1.5-0.2-1.8c-0.2-0.3-0.2-0.4-0.8-0.4h-0.5h-1.1c-0.8,0-1.4,0-1.5-0.1h-0.2c-0.2,0-0.5,0.1-0.8,0.1
		c-0.7,0-1.4,0.1-2,0.1c-0.3,0-0.6,0-0.8-0.1c-0.2-0.1-0.9,0-1.5,0c-0.2,0-0.4,0-0.5,0.1c-0.8,0.4-0.9,0.7-0.9,1.3
		c0,0.2,0.1,0.4,0.1,0.7c0,0.2-0.1,0.5-0.1,0.7v0.7c0,1.1,0.1,2.1,0.1,3.3c0,0.5-0.1,1-0.1,1.5c-0.1,0.4-0.1,1.4-0.1,2.1v0.8
		c0,0.4,0.1,0.8,0.1,1v0.1V28c0,0.2,0,0.6-0.1,1.1c0,0.7,0.1,0.8,0.1,1.3v0.1c0,0.2,0.1,0.4,0.1,0.7c0,0.1-0.1,0.1-0.1,0.2
		c-0.1,0.2-0.1,0.9-0.1,2.9c0,1,0,1.7-0.1,1.8c0,0.4,0.1,1.2,0.1,1.6c0,0.2,0,1.2-0.1,2.3c-0.1,0.8-0.1,1.5-0.1,2
		c0,1.6,0.1,2.1,0.1,2.9c0,0.4-0.1,1-0.2,1.8c-0.1,0.5-0.1,0.6-0.1,2.4c0,0.5,0,1.1-0.1,1.4v1.2c0,0.1,0.1,0.6,0.1,1.1
		c0,0.5-0.1,1.1-0.1,1.5c0,0.9,0,2,0.1,2.1l0.1,0.7c0,0.2,0.1,0.4,0.2,0.5c0.5,0.7,0.6,0.8,1,1c0.2,0.1,0.5,0.2,0.6,0.2
		c0.6,0.2,0.9,0.2,1.7,0.4c0.4,0,1.2,0,1.5-0.1c0.1-0.1,0.2-0.1,0.4-0.1c0.2,0,0.4,0.1,0.6,0.1c0.2-0.1,1.4-0.1,1.6-0.1
		c0.2,0.1,0.4,0.1,0.5,0.1c0.2-0.1,0.4-0.1,0.7-0.1c0.4,0.1,1.1,0.1,1.6,0.1h0.7c0.3,0,1.4,0.1,1.7,0.1h0.4c1.8,0,2.8-0.1,3.1-1.5
		v-1v-0.4c0.1-0.1,0.1-0.2,0.1-0.4c0-0.5-0.1-1.2-0.1-1.7V53.8z M231.3,27.6c0.1-0.4,0.1-0.9,0.1-1.2v-0.1c0.1-0.7,0.1-0.8,0.2-0.9
		c0.1,0,0.4-0.1,0.6-0.1c0.4,0,3.1-0.2,4-0.2c0.3,0,0.8-0.2,1.1-0.2c0.1,0,0.2,0,0.3,0.1h0.5h0.1c0.1,0,0.2,0.1,0.4,0.1h0.1
		c1.7-0.2,2-0.9,2-1.7c0-0.3-0.1-0.7-0.1-0.9v-0.1v-3v-0.1c0-1.1-0.1-2.2-0.2-2.9c-0.2-0.4-0.3-0.5-0.8-0.7
		c-0.4-0.1-0.4-0.1-2.2-0.2c-0.9-0.1-2-0.1-2.4-0.1h-0.2h-2.1c-0.1,0-0.8,0.1-1.4,0.1c-0.7,0-1.3-0.1-1.4-0.1
		c-0.1,0.1-0.2,0.1-0.4,0.1c-0.1,0-0.2-0.1-0.2-0.1h-0.1c-0.4,0-1,0.1-1.2,0.1h-0.2h-0.9h-0.1c-0.4,0-1,0-1.5-0.1h-1.3
		c-0.1,0-0.3,0-0.5-0.1c-0.1,0-0.3,0.1-0.5,0.1h-1c-0.6,0-1.1,0.1-1.4,0.4c-0.3,0.3-0.3,0.9-0.4,1.3c-0.2,0.8-0.2,0.9-0.2,2.2
		c0.1,0.2,0.1,0.4,0.1,0.5v0.6c0,0.6,0,3.4,0.1,5.6v0.2c0,1-0.1,1.8-0.1,2.2c-0.1,0.3-0.1,0.8-0.1,1.7v0.7l0.2,1.8
		c0,1.9,0,2.4,0.1,2.7c0,0.1-0.1,0.4-0.1,0.5c0.1,0.2,0.1,0.4,0.1,0.4v0.1c0,0.1-0.1,0.5-0.1,0.9c0,1.3,0.1,2.2,0.1,2.9v0.2
		c0,1.2-0.1,1.5-0.1,1.6c0.1,0.1,0.1,0.5,0.1,1.1v1.2c0.1,0.1,0.1,0.2,0.1,0.2c0,0.1,0,0.2-0.1,0.2V45v0.5c-0.1,0.3-0.1,0.7-0.1,1.1
		c0,0.7,0.1,1.4,0.1,2.3L220,51c0,1.9,0.1,4.1,0.4,5.5c0.1,0.4,0.2,0.8,0.5,1c0.5,0.5,0.7,0.9,1.9,0.9c1.2,0.2,1.8,0.2,2.6,0.2h0.5
		h1.5c2.3,0,3.9,0.1,6,0.1h1.7c0.3,0,1.5-0.1,1.7-0.1c0.1-0.1,0.2-0.1,0.4-0.1c0.4,0,0.8,0.1,1.1,0.1c0.2,0,0.5,0,0.7-0.1
		c0.2,0,0.9-0.5,1.1-0.8c0.3-0.3,0.4-0.8,0.5-1.4c0-0.5,0.1-2.2,0.1-3.4c0-0.5-0.1-0.8-0.1-1c-0.1-0.1-0.1-0.5-0.1-0.9
		c-0.1-0.9-0.1-0.9-0.4-1.4c-0.7-0.4-0.9-0.5-1.8-0.5H238c-0.6-0.1-1.2-0.1-1.8-0.1h-0.1c-0.5,0-0.9,0-1.1,0.1
		c-0.1,0.1-0.2,0.1-0.4,0.1H234c-0.5,0-0.7,0-1.1-0.1c-0.1,0-0.6,0.1-0.8,0.1h-1c-0.1-0.3-0.1-0.4-0.1-0.5v-0.8v-0.7
		c-0.1-0.2-0.1-0.3-0.1-0.5c0-0.4,0.1-0.8,0.1-1.5v-0.7c0-0.8-0.1-1.4-0.1-1.8V42v-0.3c0.1-0.4,2.6-0.5,3.5-0.5
		c0.4-0.1,0.8-0.1,0.8-0.1h0.4h0.2h0.1h0.1c0.3,0,1.5,0,1.9,0.1c0.2,0,0.3,0.1,0.4,0.1c0.1,0,0.2-0.1,0.2-0.1c0.2,0,0.6-0.4,0.7-0.7
		c0.1-0.3,0.2-1.6,0.2-2.9v-0.1c0-0.9-0.1-1.8-0.1-2.4c0-0.4-0.1-0.9-0.1-1.1c-0.1-0.2-0.1-0.5-0.1-0.6c-0.1-0.2-0.5-0.4-0.7-0.4
		c-0.1,0-0.2-0.1-0.4-0.1c-0.2-0.1-0.5-0.1-0.8-0.1h-0.6c0,0-0.3,0-0.7,0.1c-0.6,0.1-1,0.1-1.5,0.1h-0.1h-1.1
		c-0.5,0-1.2-0.1-1.3-0.1c-0.1,0-0.3,0.1-0.5,0.1c-0.1,0-0.2,0-0.3-0.1c-0.1-0.2-0.1-0.7-0.1-1v-0.5v-0.6c0-0.6-0.1-1.3-0.1-2.1
		v-0.1C231.2,28.2,231.2,27.9,231.3,27.6z M415.7,38.4c-0.2-0.4-2-1.7-2-2.3c0-0.1,0-0.1,0.1-0.2c0.3-0.3,0.7-1,0.8-1.2
		c0.2-0.2,0.8-1.4,0.9-1.4c0.1-0.1,0.3-0.6,0.8-1.4c0.6-1.2,0.9-2.4,1.2-4V27v-0.7c0.1-0.7,0.1-1.4,0.1-1.5v-0.2
		c0-0.4-0.1-1.1-0.2-1.4c-0.3-0.9-0.4-1.7-0.9-2.8c-0.7-1.6-0.9-2.3-2-3.1c-0.8-0.7-1.3-0.9-1.8-1.1l-0.7-0.2
		c-0.2-0.1-0.8-0.4-1.4-0.5c-1.6-0.4-2.2-0.5-3.1-0.5c-0.7,0-1.5,0.1-3,0.1h-0.4h-1.4c-0.4,0-0.7,0-0.8,0.1c0,0-0.3-0.1-0.7-0.1
		c-0.3-0.1-1.2-0.1-1.9-0.1l-1.4-0.1c-0.5,0.2-0.6,0.3-1.5,0.3c-0.2,0.1-0.4,0.1-0.6,0.1c-0.2,0-0.3,0-0.3-0.1
		c-0.1-0.1-0.6-0.1-1-0.1c-0.4,0-0.9,0-1.1,0.1c-0.4,0.1-0.7,0.2-1,0.5c-0.1,0.1-0.3,0.2-0.3,0.2c-0.4,0.4-0.9,1.2-1.1,1.7
		c0,0.1-0.1,0.3-0.1,0.4c-0.2,0.4-0.3,1.3-0.3,2.1c0,0.4,0,0.8,0.1,1.1c0,1-0.1,3-0.1,4.3c0,0.5,0,0.9,0.1,1.1v2
		c0,0.3,0,0.7-0.1,1.1v0.8v0.4v1c0,0.8,0.1,1.5,0.1,2.4s-0.1,2-0.1,3.8v3.5v4.6v1.1v1.2v1c0,0.8,0.1,1.5,0.1,3l0.1,3.9
		c-0.1,0.2-0.1,0.4-0.1,0.5c0,0.5,0.1,1.1,0.4,1.5c0.4,0.6,1.3,0.7,2.4,0.7c0.9,0,1.9-0.1,2.8-0.1c0.1,0,0.9-0.2,1.2-0.2h0.1
		c0.5,0.1,1.7,0.2,2.7,0.2h0.8c0.1-0.1,0.2-0.1,0.2-0.1c0.1,0,0.1,0,0.2,0.1c0.2,0.1,0.7,0.1,1.2,0.1c0.6,0,1.3,0,1.8-0.1h0.4
		c0.4,0,0.9,0.1,1.4,0.1c0.2,0,0.7-0.1,1.1-0.1c0.1,0,0.2,0.1,0.3,0.1c1.2-0.1,2.3-0.5,3.1-0.8c0.5-0.3,0.8-0.4,1.2-0.8
		c0.5-0.3,0.7-0.4,1.3-0.8c0.1-0.1,0.4-0.3,0.6-0.5c1.6-1.6,1.9-2,2.6-3.4c0.5-0.8,0.6-1.1,0.8-1.8c0.2-0.7,0.4-1.1,0.5-2.2l0.1-0.8
		c0.1-0.2,0.1-0.4,0.1-0.5v-0.1c0.1-0.1,0.1-0.7,0.1-1.5c0-1.6-0.2-1.5-0.2-2.6C417.9,41.1,416.6,39.9,415.7,38.4z M406.3,44.9
		l-0.1,0.9c-0.1,0.4-0.2,1-0.4,1.2c-0.1,0.2-0.7,0.8-0.8,1.1c-0.2,0.2-1.3,0.3-2,0.5c-0.5,0.1-0.7,0.2-0.8,0.2c-0.1,0-0.1,0-0.2-0.1
		c-0.2-0.2-0.3-2.3-0.3-3c0.1-1,0.1-1.8,0.1-2.4c0-0.6,0-1-0.1-1.1c0-0.4-0.1-0.7-0.1-0.9c0-0.2,0.1-0.3,0.4-0.3h0.2h1.4
		c0.1-0.1,0.2-0.1,0.4-0.1c0.8,0,1.8,0.6,2,1.2c0.2,0.7,0.2,1.4,0.2,2C406.4,44.4,406.3,44.7,406.3,44.9z M406.1,28.6
		c-0.1,0.2-0.2,0.4-0.2,0.4c0,0.1-0.1,0.2-0.3,0.5l-0.4,0.5c-0.2,0.2-1,0.9-1.1,0.9c-0.2,0.2-1.7,0.5-2.3,0.5
		c-0.3-0.1-0.4-0.3-0.4-0.7v-0.8c-0.1-0.5-0.1-1.1-0.1-1.4c-0.1-0.6-0.1-2-0.1-2.6v-0.4c0-0.3,0.1-0.4,0.2-0.5
		c0.3-0.4,0.8-0.5,1.4-0.5c1.4,0,3,0.7,3.2,1.4c0.1,0.2,0.1,0.6,0.1,1.1C406.4,27.6,406.3,28.3,406.1,28.6z M309.5,33.5
		c0.9-1.2,1.1-1.7,1.7-2.8c0.2-0.2,0.3-0.5,0.4-0.7c0.5-1.2,2.2-3.5,2.7-4.7c0.5-0.7,0.9-1.4,1.4-2.1c0.3-0.8,0.9-1.4,1.2-2.1
		c0.1-0.1,0.2-0.3,0.4-0.5l1.4-1.8c0.4-0.5,0.7-1.1,0.7-2c0-0.2-0.4-1.1-0.5-1.1c-0.2-0.1-1-0.3-1.1-0.3c-0.8,0-1.5-0.2-3.1-0.2
		c-0.6,0-0.8,0-1.1-0.1h-0.1c-0.1,0-0.3,0.1-0.4,0.1h-1.6c-1.7,0-2.3,0.1-2.7,0.5c-0.4,0.3-0.6,0.8-1.1,1.7l-1.8,2.4
		c-0.4,0.5-0.3,0.8-0.7,1.4c-0.1,0.3-0.2,0.5-0.2,0.6l-0.5,0.9c-0.2,0.2-0.4,0.5-0.5,0.8c-0.2,0.4-0.6,0.8-0.7,1.2
		c-0.2,0.4-0.6,0.9-0.7,1.3l-0.4,0.7c-0.1,0.2-1,2.1-1.1,2.1c-0.1-0.1-0.1-1.4-0.2-2.7v-3.9l-0.1-1.2v-0.9c0-1.2,0.1-2.5,0.1-3.4
		c0-0.4,0-0.7-0.1-0.9c-0.1-0.2-0.2-0.4-0.5-0.4c-0.2-0.1-0.5-0.2-0.7-0.2c-0.2,0-1.4,0.1-1.5,0.1c-0.2,0-1-0.1-1.2-0.1h-1
		c-1.1,0-1.2,0-1.5,0.1c-0.2,0.1-0.3,0.1-0.4,0.1c-0.1,0-0.2,0-0.3-0.1h-0.5c-0.5,0-1,0-1.5,0.1c-1,0.1-1.4,0.2-1.5,0.5
		c-0.1,0.1-0.1,0.2-0.1,0.4c0,0.2,0.1,0.5,0.1,0.8c0,0.2,0,0.5-0.1,0.8c0,0.2-0.1,0.5-0.1,0.8c0,0.2-0.1,0.4-0.1,0.7
		c0,0.9,0.1,2,0.1,2.5c-0.1,0.1-0.1,0.2-0.1,0.4v0.2c0.1,0.1,0.1,0.2,0.1,0.4c0,0.3-0.1,0.7-0.1,0.9c0.1,0.2,0.1,0.4,0.1,0.5
		c0,0.3-0.1,0.5-0.1,0.9c0,0.9,0.1,1.7,0.1,2.3c0,0.6-0.1,1.1-0.1,1.2v1.2v0.5v1.6c0,0.3,0.1,0.5,0.1,0.7c0,0.2-0.1,0.4-0.1,0.6v1.1
		v0.4V35c0,0.1-0.1,0.2-0.1,0.3c0,0.1,0,0.1,0.1,0.2v2.5v5.2v2.6v0.7v0.2v0.5v0.4c0,0.1,0.1,0.1,0.1,0.2c0,0.1-0.1,0.1-0.1,0.2
		c0,0.2,0,0.4,0.1,0.8c0,0.3,0.1,0.5,0.1,0.6c0,0-0.1,0.1-0.1,0.3c0,0.2,0.1,0.4,0.1,0.7c0,0.7,0,1.1-0.1,1.5v0.8
		c0.1,0.2,0.1,0.8,0.1,1.1v0.2c0,0.1-0.1,0.9-0.1,1.4v0.6c0,1.1,0.1,2,0.5,2.4c0.4,0.4,0.8,0.5,1.7,0.5h0.8c0.3,0,0.6,0,1-0.1
		c0.4,0,0.6-0.1,0.8-0.1c0.6,0,0.8,0.1,2,0.1c0.6,0,1.4-0.1,1.8-0.1h0.8c0.7,0,1.1-0.1,1.1-0.5c0.1-0.7,0.2-0.9,0.2-1.2
		c0-0.1-0.1-0.2-0.1-0.3c0-0.2-0.1-0.4-0.1-0.7c0-0.7,0.1-1.4,0.1-1.7c0-0.5,0.1-0.9,0.1-1.8v-0.8V51c0-0.2,0-0.4,0.1-0.5
		c0.1-0.2,0.1-0.4,0.1-0.5c-0.1-0.1-0.1-0.2-0.1-0.4c0-0.2,0-0.5,0.1-0.7l0.1-1.6c0-0.4,0.1-2.1,0.1-2.2c0-0.1,0.1-0.3,0.1-0.4v-0.1
		c0-0.1-0.1-0.4-0.1-0.5v-0.9c0.1,0.1,1.6,3.8,1.7,4c0.1,0.8,0.7,1.6,0.8,2.3c0.1,0.5,0.5,0.9,0.7,1.5c0.4,0.9,0.7,1.2,0.9,2.3
		c0.1,0.2,0.1,0.5,0.1,0.6c0,0.1,0.1,0.3,0.2,0.5c0.2,0.4,0.6,1.2,0.6,1.4l0.2,0.5c0.1,0.3,0.5,1.4,0.5,1.6c0.1,0.4,0.5,0.9,1.1,0.9
		c0.1,0,0.2,0,0.4-0.1h1.4h0.5l0.4-0.1h0.5c0.4,0,0.8,0,1.1,0.1c0.1,0.1,0.2,0.1,0.3,0.1c0.3,0,0.7-0.1,0.9-0.1h0.2
		c0.6,0.1,1.2,0.1,1.9,0.1h1.8h0.3c1.1,0,1.5-0.5,1.5-1.1c0-0.1-0.1-0.2-0.1-0.4c-0.2-0.7-0.5-1.5-1-2.1c-0.1-0.3-0.4-0.8-0.6-1.1
		l-0.6-1.1c-0.4-0.7-0.8-2.1-1.2-2.7c-0.5-1.2-1.7-4.3-2.1-5.1c-0.1-0.2-0.2-0.4-0.2-0.4c0,0-0.1-0.2-0.2-0.4
		c-0.5-0.9-0.7-1.8-1.2-2.8c-0.2-0.4-0.8-2-0.8-2.3c-0.4-0.7-0.8-2.2-1.2-2.7c-0.1-0.2-0.7-1.5-0.7-1.7c0-0.1-0.1-0.2-0.1-0.4
		c0-0.1,0-0.2,0.1-0.3C309.3,34,309.4,33.8,309.5,33.5z M287.7,3c-0.5-0.2-0.5-0.4-0.9-0.6c-0.1,0-0.6-0.4-0.6-0.4
		c-0.1,0-1-0.4-1.1-0.5c-0.3-0.1-1.3-0.3-1.7-0.2c0,0,0,0-0.1,0.1c-0.2,0.1-0.7,0.5-0.8,0.8c-0.2,0.3-0.2,1.2-0.4,1.6
		C282,4,282.5,4.7,282,5.8c-0.4,0.7,0.1,1.8,0.4,2.5c0.1,0.3,0.5,0.5,0.8,0.4c0.2-0.1,0.3,0,0.4,0.1c0,0.3,0,0.5,0,0.5
		c0,0,1,0.5,1,0.5l0.2,0.1c0.4,0.2,1.1,0.3,1.1,0.2c0.3-0.1,0.6-0.4,0.8-0.9c0.2-0.4,0.4-0.9,0.6-1.2c0.3-0.5,0.8-1.4,1.2-2.2
		c0.2-0.4,0.4-0.7,0.5-1C289,3.8,288.7,3.6,287.7,3z M270.9,30.3c-0.1-0.7-0.1-1.6-0.1-2v-0.7v-0.2c0-0.8,0-1.6-0.1-2.3
		c0-0.4-0.1-0.7-0.1-1.1c-1.4-0.2-2.6-1-3-2c-0.8,1.2-2.7,1.9-4.7,1.4c-2.1-0.5-3.7-2-3.7-3.5c-1.2,1-3.4,0.8-5.2-0.5
		c-0.7-0.5-1.2-1.2-1.5-1.8c-0.1,0.1-0.2,0.2-0.3,0.3c-0.4-0.9-0.7-1.8-1-2.7c0,0-0.1,0-0.1,0c-0.5,0.1-1,0.1-1.2,0.1h-0.5
		c-0.3-0.1-0.8-0.1-1.3-0.1c-0.5,0-0.9,0-1.1,0.1c-0.1,0.1-0.3,0.1-0.4,0.1c-0.2,0-0.4,0.1-0.5,0.1c-0.2,0.1-0.5,0.1-0.6,0.1
		c-1,0-1.2,0.8-1.2,1.7c0,0.7,0.1,1.4,0.1,2c0.1,1.3,0.1,2,0.1,2.1c-0.1,0.4-0.1,1.6-0.1,2.2c-0.1,0.4-0.1,0.8-0.1,0.8
		c-0.1,0.1-0.1,0.2-0.1,0.5c0,0.3,0,0.8,0.1,0.9v0.8v2.4v3.6c0.1,1.4,0.1,2.4,0.1,2.4v0.8c0,1.2-0.1,4.6-0.1,5.6
		c0.1,0.3,0.1,0.9,0.1,1.4v1.2c0,0.7,0.1,1.7,0.1,3.4c-0.1,0.7-0.1,1.1-0.1,2.8c0.1,0.8,0.1,2.2,0.1,3.2c0,1,0.1,1.5,0.1,1.5v0.1
		v0.4c-0.1,0.2-0.1,0.3-0.1,0.4c0,0.5,0.2,0.9,0.2,1.4c0,1.2,1,1.6,2.4,1.6c0.6,0.2,1.3,0.2,2.4,0.2c0.6-0.1,1-0.1,1.9-0.1
		c3,0,3.9,0.1,6.3,0.1c1.6,0,0.7-0.2,2-0.2c0.2,0,0.4,0.1,0.6,0.1c0.2,0,0.4-0.1,0.5-0.1c0.2-0.1,2-0.1,2.4-0.2
		c1.7-0.2,3-0.7,3.7-1.3c0.1-0.1,0.4-0.4,0.5-0.5c1.2-1.1,2-2.6,2.5-4.1c0.1-0.4,0.2-0.7,0.3-0.8c0-0.1,0.1-0.4,0.2-0.8
		c0.1-0.4,0.1-0.9,0.2-1.2c0.2-0.7,0.4-2.7,0.5-3.1l0.1-0.9c0-1.2,0.1-2.8,0.1-4.3l0.1-0.7v-0.6V38c0-0.8,0-2.2,0.1-3.3
		c0-1.1,0-2.1-0.1-2.4C270.9,31.9,270.9,31,270.9,30.3z M259.9,42.9c-0.2,2.4-0.1,2.1-0.4,4.4c-0.1,0.9-1.7,1.8-2.3,1.9
		c-0.2,0.1-0.2,0.1-0.2,0.1h-0.2c-0.4-0.1-0.8-0.1-0.9-0.1h-0.1c-0.1,0-0.2,0.1-0.4,0.1c-0.3,0-0.4-0.1-0.4-0.4
		c0-0.2-0.1-0.7-0.1-1.1v-3c0-2.2-0.1-6.2-0.1-6.3V37c-0.1-0.6-0.1-1.4-0.1-2.2c0-1.1,0-2.1,0.1-2.6c0-3.3,0.1-2.8,0.1-4.6
		c0-0.2,0.1-0.6,0.1-1.1c0-0.5-0.1-1-0.1-1.4c0-0.4-0.1-0.7-0.1-0.8c0-0.3,0.1-0.4,0.2-0.5c0.1-0.1,0.1-0.1,0.2-0.1l-0.1-0.1
		c0,0,0-0.1,0.1-0.1c0.2-0.1,0.4-0.1,0.5-0.1c0.2,0,0.8,0.1,1.1,0.1c0.2,0.1,1.2,0.4,1.4,0.6l0.5,0.7c0.3,0.3,0.4,0.5,0.4,0.7
		c0.1,0.2,0.3,0.6,0.3,0.8c0,0.1,0,0.4,0.1,0.5c0.1,0.2,0.1,0.5,0.1,0.8v1c0.1,0.3,0.1,1.4,0.1,2.2v2.1c0.1,0.3,0.1,0.7,0.1,1
		c0,0.2,0,0.6,0.1,0.9V42.9z M285.4,49.7c0-0.8,0.1-2.4,0.1-2.6c0-0.4,0-0.9-0.1-4.8v-2.2c0-0.4,0.1-1.3,0.1-2.2v-0.9v-1v-0.8v-0.5
		c0-0.8-0.1-1.2-0.1-1.5v-0.2c0.1-0.5,0.1-2.4,0.1-3.4v-0.9c0-0.1,0.1-0.3,0.1-0.5h-10.9v0.1c0,0.4-0.1,1.1-0.1,1.3
		c0,0.1,0.1,3.1,0.1,3.7v0.4v0.3c0,0.2,0,0.5,0.1,1.2v1.1c0,0.1-0.1,0.3-0.1,0.4c0,0.1,0.1,0.2,0.1,0.3v2.5c0,0.4,0.1,1.1,0.1,1.8
		c0,0.7-0.1,1.4-0.1,1.7v0.6c0,1.5,0.2,4.4,0.2,5.3v0.4v0.2v0.2c0,0.4-0.1,1-0.1,1.4c0,0.2,0,0.4,0.1,0.4c0,0.1,0,0.2-0.1,0.5
		c-0.1,0.1-0.1,0.2-0.1,0.2c0,0.2,0.1,0.3,0.1,0.4v0.4c-0.1,0.2-0.1,0.5-0.1,0.8c0,0.3,0.1,1,0.1,1.5c0,0.8-0.1,1.7-0.1,2.2
		c0,0.3,0,0.5,0.1,0.5c0.1,0.2,0.8,0.5,1.1,0.6c0.6,0,0.8,0.2,1.5,0.2c1.6,0,1.1-0.1,2.7-0.1c1.6,0,3.7-0.1,4.5-0.2
		c0.4-0.1,0.6-0.2,0.7-0.5c0-1.5-0.2-7-0.2-7.7V49.7z M284.3,15.6c0,0-0.1,0-0.2,0c0,0.2-0.1,0.3-0.2,0.5c-0.3,0.9-0.7,1.8-1.1,2.6
		c-0.1-0.1-0.2-0.2-0.3-0.3c-0.3,0.4-0.7,0.8-1.2,1.2c-1.6,1.1-3.5,1.3-4.7,0.7c0,1.1-0.7,2.1-1.8,2.9c0,0.1,0,0.4,0,0.8v1.2h10.8
		c0-0.6,0-0.9,0.1-1.6v-1.1c0-0.2,0.1-1.5,0.1-2v-1.5c-0.1-0.7,0-0.6,0-0.8v-0.3c0-0.8-0.1-1.3-0.2-1.7
		C285.2,15.8,284.9,15.6,284.3,15.6z M57.9,46.7l-8.8-20.4L54,23l6.8,3.1l0.7,2.8l4.2-0.7l-3.2-3.7l-9.2-5.8L25.5,28l-6.1-2.9h10.3
		l0.7-1.3H3.5l0.7,1.3h9.2l4.6,1.5l6,4.9l12.5-0.2l5.3,7.4l-7.6,9.1l1.3,9.5l-6-1.5l8.4,6.8l2.1-13.6l8.8-5.2l6.2,8.3l11-4.1
		l3.6,1.8l-2.4-4.2L57.9,46.7z" />

    </symbol>

    <symbol id="downDetailArrow" viewBox="0 0 33.6 43.7">

        <path class="st0" d="M32.7,26.1L17.9,42.5c0,0,0,0.1,0,0.1c0,0,0,0.1,0,0.1c0,0-0.1,0-0.1,0c-0.2,0.2-0.6,0.4-0.9,0.4c0,0,0,0-0.1,0
	c0,0,0,0,0,0c0,0,0,0,0,0c0,0-0.1,0-0.1,0c-0.3,0-0.5-0.1-0.7-0.3c-0.1,0-0.1,0-0.2-0.1c0,0,0-0.1-0.1-0.2c0,0,0,0-0.1-0.1L0.8,26.1
	c-0.6-0.6-0.6-1.5,0-2.1c0.6-0.6,1.5-0.6,2.1,0l12.4,13.7V2.6c0-0.8,0.7-1.5,1.5-1.5c0.8,0,1.5,0.7,1.5,1.5v35.2L30.7,24
	c0.6-0.6,1.5-0.6,2.1,0C33.3,24.6,33.3,25.5,32.7,26.1z" />
    </symbol>

    <symbol id="addIcon" viewBox="0 0 48.7 51.7">

        <path id="XMLID_2_" class="st0" d="M31.8,49.3c-10.5,1.3-19.3-7.5-18-17.9c0.9-7.1,6.6-12.9,13.8-13.8c10.5-1.3,19.3,7.5,18,17.9
	C44.7,42.7,38.9,48.4,31.8,49.3z M31.5,19.7c-9.1-1.1-16.7,6.5-15.6,15.6c0.8,6.2,5.8,11.2,12,11.9c9.1,1.1,16.7-6.5,15.5-15.6
	C42.7,25.5,37.7,20.5,31.5,19.7z M36.1,34.5h-5.3v5.3c0,0.6-0.5,1.1-1,1.1c-0.6,0-1-0.5-1-1.1v-5.3h-5.3c-0.6,0-1.1-0.5-1.1-1
	c0-0.6,0.5-1,1.1-1h5.3v-5.3c0-0.6,0.5-1.1,1-1.1c0.6,0,1,0.5,1,1.1v5.3h5.3c0.6,0,1.1,0.5,1.1,1C37.2,34.1,36.7,34.5,36.1,34.5z" />

        <path id="XMLID_48_" class="st0" d="M9,10.2c-0.3-0.3-0.8-0.3-1.1,0c-0.3,0.3-0.3,0.8,0,1.1l6,5.8c0.3,0.3,0.8,0.3,1.1,0
		c0.3-0.3,0.3-0.8,0-1.1L9,10.2z M22.2,4.5c0-0.4-0.4-0.8-0.8-0.8c-0.4,0-0.8,0.4-0.8,0.8l0.1,8.3c0,0.4,0.4,0.8,0.8,0.8
		c0.4,0,0.8-0.4,0.8-0.8L22.2,4.5z M11.3,22L3,22.2c-0.4,0-0.8,0.4-0.8,0.8c0,0.4,0.4,0.8,0.8,0.7l8.2-0.1c0.4,0,0.8-0.4,0.8-0.8
		C12,22.4,11.7,22,11.3,22z" />


    </symbol>

    <symbol id="elementShareIcon" viewBox="0 0 28 24.1">

        <path class="st0" d="M23.2,9.5c-1.6,0-3-0.8-3.8-2l-9.8,4.3c0,0.1,0,0.2,0,0.4c0,0.2,0,0.5-0.1,0.7l9.8,4c0.8-1.2,2.2-2,3.8-2
	c2.5,0,4.5,2,4.5,4.4c0,2.4-2,4.4-4.5,4.4c-2.5,0-4.5-2-4.5-4.4c0-0.2,0-0.5,0.1-0.7l-9.8-4c-0.8,1.2-2.2,2-3.8,2
	c-2.5,0-4.5-2-4.5-4.4c0-2.4,2-4.4,4.5-4.4c1.7,0,3.2,0.9,3.9,2.3l9.6-4.2c0-0.2-0.1-0.5-0.1-0.8c0-2.4,2-4.4,4.5-4.4
	c2.5,0,4.5,2,4.5,4.4C27.7,7.5,25.7,9.5,23.2,9.5z M23.2,21.9c1.5,0,2.7-1.2,2.7-2.7c0-1.5-1.2-2.7-2.7-2.7c-1.5,0-2.7,1.2-2.7,2.7
	C20.5,20.7,21.7,21.9,23.2,21.9z M5.2,9.5c-1.5,0-2.7,1.2-2.7,2.7c0,1.5,1.2,2.7,2.7,2.7c1.5,0,2.7-1.2,2.7-2.7
	C7.9,10.7,6.7,9.5,5.2,9.5z M23.2,2.4c-1.5,0-2.7,1.2-2.7,2.7c0,1.5,1.2,2.7,2.7,2.7c1.5,0,2.7-1.2,2.7-2.7
	C25.9,3.6,24.7,2.4,23.2,2.4z" />

    </symbol>

    <symbol id="morning-icon" viewBox="0 0 38.1 35.9">

        <path class="st0" d="M0.5,26.2v-2.3H38v2.3H0.5z M30.7,9.6L34,6.3l1.7,1.7l-3.3,3.3L30.7,9.6z M31,21.5c0-6.5-5.3-11.8-11.7-11.8
	S7.5,15.1,7.5,21.5H5.2c0-7.8,6.3-14.1,14.1-14.1c7.8,0,14.1,6.3,14.1,14.1H31z M18.1,0.4h2.3v4.7h-2.3V0.4z M2.8,7.9l1.7-1.7
	l3.3,3.3l-1.7,1.7L2.8,7.9z M35.7,30.9H2.8v-2.3h32.8V30.9z M32.1,35.6H6.4v-2.3h25.8V35.6z" />

    </symbol>

    <symbol id="noon-icon" viewBox="0 0 37 37">

        <path class="st0" d="M31.9,19.7v-2.4h4.8v2.4H31.9z M27.2,8.3l3.4-3.4l1.7,1.7L28.9,10L27.2,8.3z M18.7,29.3
	c-6,0-10.8-4.8-10.8-10.8c0-6,4.8-10.8,10.8-10.8c6,0,10.8,4.8,10.8,10.8C29.5,24.5,24.6,29.3,18.7,29.3z M18.7,10.1
	c-4.6,0-8.4,3.8-8.4,8.4c0,4.6,3.7,8.4,8.4,8.4c4.6,0,8.4-3.8,8.4-8.4C27.1,13.9,23.3,10.1,18.7,10.1z M17.5,0.5h2.4v4.8h-2.4V0.5z
	 M5.1,6.6l1.7-1.7l3.4,3.4L8.5,10L5.1,6.6z M5.5,19.7H0.7v-2.4h4.8V19.7z M10.2,28.7l-3.4,3.4l-1.7-1.7L8.5,27L10.2,28.7z
	 M19.9,36.5h-2.4v-4.8h2.4V36.5z M32.2,30.4l-1.7,1.7l-3.4-3.4l1.7-1.7L32.2,30.4z" />

    </symbol>

    <symbol id="evening-icon" viewBox="0 0 34 36">

        <path class="st0" d="M16.7,3.1c-2,2.9-3.2,6.4-3.2,9.9c0,8.4,6.1,15.5,14.2,17.2c-2.6,1.9-5.8,2.9-9.1,2.9
	c-8.5,0-15.4-6.8-15.4-15.1C3.2,10.4,9.1,4.1,16.7,3.1 M18.6,0.5C8.7,0.5,0.7,8.4,0.7,18.1c0,9.7,8,17.6,17.9,17.6
	c6.2,0,11.6-3.1,14.9-7.7c-0.7,0.1-1.3,0.2-2.1,0.2c-8.5,0-15.4-6.8-15.4-15.1c0-5,2.5-9.4,6.4-12.2C21.2,0.7,19.9,0.5,18.6,0.5
	L18.6,0.5z" />

    </symbol>

    <symbol id="night-icon" viewBox="0 0 49 46">

        <path class="st0" d="M48.5,30.5v3h-48v-3h6.8c-0.5-1.9-0.8-3.9-0.8-6c0-13.3,10.7-24,24-24c4.4,0,8.5,1.2,12,3.2
	c-10.2,1.5-18,10.2-18,20.8c0,2.1,0.4,4.1,1,6H48.5z M33.5,3.7c-1-0.2-2-0.2-3.1-0.2c-11.6,0-21,9.4-21,21c0,2.1,0.4,4.1,1,6h11.8
	c-0.5-1.9-0.8-3.9-0.8-6C21.5,15.8,26.3,7.9,33.5,3.7z M8,36.5h21c0.8,0,1.5,0.7,1.5,1.5c0,0.8-0.7,1.5-1.5,1.5H8
	c-0.8,0-1.5-0.7-1.5-1.5C6.5,37.2,7.2,36.5,8,36.5z M11,42.5h15c0.8,0,1.5,0.7,1.5,1.5c0,0.8-0.7,1.5-1.5,1.5H11
	c-0.8,0-1.5-0.7-1.5-1.5C9.5,43.2,10.2,42.5,11,42.5z" />

    </symbol>

    <symbol id="deleteIcon" viewBox="0 0 24 24">
        <path class="st0" d="M12,23.5C5.6,23.5,0.5,18.4,0.5,12C0.5,5.6,5.6,0.5,12,0.5c6.4,0,11.5,5.1,11.5,11.5
	C23.5,18.4,18.4,23.5,12,23.5z M12,2C6.5,2,2,6.5,2,12c0,5.5,4.5,10,10,10c5.5,0,10-4.5,10-10C22,6.5,17.5,2,12,2z M15.7,15.6
	c-0.3,0.3-0.8,0.3-1.1,0L12,13l-2.6,2.6c-0.3,0.3-0.8,0.3-1.1,0c-0.3-0.3-0.3-0.8,0-1L11,12L8.4,9.4c-0.3-0.3-0.3-0.8,0-1
	c0.3-0.3,0.8-0.3,1.1,0L12,11l2.6-2.6c0.3-0.3,0.8-0.3,1.1,0c0.3,0.3,0.3,0.7,0,1L13,12l2.6,2.6C15.9,14.9,15.9,15.3,15.7,15.6z" />
    </symbol>

    <symbol id="product-icon" viewBox="0 0 48 41">
        <path class="st0" d="M1.5,31L1.5,31c0-0.5,0-1,0-1.5c0-11.9,8.5-21.7,21-22.4V4H18c-0.8,0-1.5-0.7-1.5-1.5C16.5,1.7,17.1,1,18,1h12
	c0.8,0,1.5,0.7,1.5,1.5C31.5,3.3,30.8,4,30,4h-4.5v3.1c12.5,0.8,21,10.5,21,22.4c0,0.5,0,1-0.1,1.5h0.1v3h-45V31z M4.8,31h38.5
	c0-0.5,0.1-1,0.1-1.5C43.3,18.7,35.4,10,24,10C12.5,10,4.7,18.7,4.7,29.5C4.7,30,4.7,30.5,4.8,31z M3.1,37h41.8
	c0.9,0,1.6,0.7,1.6,1.5c0,0.8-0.7,1.5-1.6,1.5H3.1c-0.9,0-1.6-0.7-1.6-1.5C1.5,37.7,2.2,37,3.1,37z" />
    </symbol>

    <symbol id="restaurant-icon" viewBox="0 0 29 40">
        <path class="st0" d="M28.5,23.3L28.5,23.3l0,0.7h-8v16h-2V23.9v-2.5V1.7l0,0l0,0V1h2.3v0.2c0.6,0.7,4.2,5,5.9,9.7
	C28.8,16.8,28.5,23.3,28.5,23.3z M24.6,12.5c-0.9-2.7-2.8-5.3-4.1-7.3v15.9h5.6C26.1,18.9,25.8,15.8,24.6,12.5z M8.5,21.3V40h-3
	V21.3c-2.8,0-5-2.3-5-5.1v-2.5v-2.5V1h3v10h2V1h3v10h2V1h3v10.2v2.5v2.5C13.5,19.1,11.3,21.3,8.5,21.3z M10.5,14h-7v2.3
	c0,1.4,1.1,2.5,2.5,2.5H8c1.4,0,2.5-1.1,2.5-2.5V14z" />
    </symbol>

    <symbol id="close-icon" viewBox="0 0 31 31">
        <path class="st0" d="M26.5,0.5h-22c-2.2,0-4,1.8-4,4v22c0,2.2,1.8,4,4,4h22c2.2,0,4-1.8,4-4v-22C30.5,2.3,28.7,0.5,26.5,0.5z
		 M28.5,26.5c0,1.1-0.9,2-2,2h-22c-1.1,0-2-0.9-2-2v-22c0-1.1,0.9-2,2-2h22c1.1,0,2,0.9,2,2V26.5z M21.6,14.5h-5.1V9.4
		c0-0.5-0.5-0.9-1-0.9c-0.6,0-1,0.4-1,0.9v5.1H9.4c-0.5,0-0.9,0.5-0.9,1c0,0.6,0.4,1,0.9,1h5.1v5.1c0,0.5,0.5,0.9,1,0.9
		c0.6,0,1-0.4,1-0.9v-5.1h5.1c0.5,0,0.9-0.5,0.9-1C22.5,14.9,22.1,14.5,21.6,14.5z" />
    </symbol>

    <symbol id="minify-icon" viewBox="0 0 31 31">
        <path class="st0" d="M26.5,30.5h-22c-2.2,0-4-1.8-4-4v-22c0-2.2,1.8-4,4-4h22c2.2,0,4,1.8,4,4v22C30.5,28.7,28.7,30.5,26.5,30.5z
	 M2.5,26.5c0,1.1,0.9,2,2,2h16v-10h-18V26.5z M2.5,16.5h18v-8h-18V16.5z M28.5,4.5c0-1.1-0.9-2-2-2h-22c-1.1,0-2,0.9-2,2v2h26V4.5z
	 M28.5,8.5h-6v20h4c1.1,0,2-0.9,2-2V8.5z" />
    </symbol>
    
    <symbol id="prev-arrow-icon" viewBox="0 0 29.1 48.5">
<path class="st0" d="M0.6,24.5c0-0.5,0.2-1,0.5-1.4C1.3,23,1.4,23,1.5,23L25.4,1.1c0.7-0.7,2-0.7,2.7,0c0.7,0.7,0.7,2,0,2.7
	L5.4,24.5l22.6,20.8c0.7,0.7,0.7,2,0,2.7c-0.7,0.7-2,0.7-2.7,0L1.5,26.1c-0.1-0.1-0.2,0-0.3-0.1C0.8,25.5,0.6,25,0.6,24.5z"/>
</symbol>

</svg>




